<?xml version="1.0" encoding="utf-8"?>
<!-- Generator: Adobe Illustrator 19.1.0, SVG Export Plug-In . SVG Version: 6.00 Build 0)  -->
<svg version="1.1" id="Layer_1" xmlns="http://www.w3.org/2000/svg" xmlns:xlink="http://www.w3.org/1999/xlink" x="0px" y="0px"
	 viewBox="-277 400.9 40 40" style="enable-background:new -277 400.9 40 40;" xml:space="preserve">
<style type="text/css">
	.st0{fill:#FFFFFF;}
</style>
<g>
	<path class="st0" d="M-304.5,409.9c-0.9-2.6-2.4-4.4-4.2-5.5c-1.9-1.1-5.2-0.9-10,0.6c2.6-3.1,5.8-4.5,9.5-4.2
		c3.7,0.3,6.9,2.6,9.4,6.9l3-1.5l-3.2,8.9l-7.6-3.8L-304.5,409.9z M-288.7,416.9c0.3,0,0.6,0.1,0.9,0.2c0.3,0.1,0.5,0.3,0.7,0.5
		c0.2,0.2,0.3,0.5,0.4,0.8c0.1,0.3,0.1,0.6,0,0.9l-2.4,19.2c-0.1,0.7-0.4,1.2-0.9,1.6c-0.5,0.4-1.1,0.6-1.7,0.6h-14.6
		c-0.6,0-1.2-0.2-1.7-0.6c-0.5-0.4-0.8-0.9-0.9-1.6l-3.1-19.3c-0.1-0.3-0.1-0.6,0-0.9c0.1-0.3,0.2-0.6,0.4-0.8
		c0.2-0.2,0.4-0.4,0.7-0.5c0.3-0.1,0.6-0.2,0.9-0.2L-288.7,416.9L-288.7,416.9z M-287.9,419.1c0-0.1,0-0.3,0-0.4
		c0-0.1-0.1-0.2-0.1-0.3c-0.1-0.1-0.2-0.2-0.3-0.2c-0.1,0-0.3-0.1-0.4-0.1h-21.4c-0.1,0-0.3,0-0.4,0.1c-0.1,0-0.2,0.1-0.3,0.2
		c-0.1,0.1-0.2,0.2-0.2,0.3c0,0.1,0,0.3,0,0.4l3,19.2c0.1,0.4,0.3,0.7,0.6,0.9c0.3,0.2,0.6,0.4,1,0.4h14.6c0.3,0,0.6-0.1,0.9-0.4
		c0.3-0.2,0.5-0.5,0.5-0.9L-287.9,419.1z M-305.7,421.1c0.3,0,0.6,0.1,0.8,0.3c0.2,0.3,0.4,0.6,0.4,0.9l1.4,12.8
		c0,0.4-0.1,0.7-0.3,1c-0.2,0.3-0.5,0.4-0.8,0.4c-0.3,0-0.6-0.1-0.9-0.4c-0.2-0.2-0.4-0.6-0.4-1l-1.4-12.8c0-0.4,0.1-0.7,0.3-1
		C-306.3,421.2-306,421.1-305.7,421.1z M-299.5,421c0.3,0,0.6,0.1,0.9,0.3c0.2,0.2,0.4,0.5,0.4,0.9l0,12.9c0,0.4-0.1,0.7-0.3,1
		c-0.2,0.3-0.5,0.4-0.8,0.5c-0.3,0-0.6-0.1-0.9-0.3c-0.2-0.2-0.4-0.6-0.4-1l0-12.9c0-0.4,0.1-0.7,0.3-1
		C-300.1,421.2-299.9,421-299.5,421z M-293.2,421.1c0.3,0,0.6,0.1,0.8,0.4c0.2,0.3,0.3,0.6,0.3,1l-1.4,12.8c0,0.4-0.1,0.7-0.4,1
		c-0.2,0.2-0.5,0.4-0.9,0.4c-0.3,0-0.6-0.1-0.8-0.4c-0.2-0.3-0.3-0.6-0.3-1l1.4-12.8c0-0.4,0.2-0.7,0.4-0.9
		C-293.8,421.1-293.5,421-293.2,421.1z M-278.9,423.1c0.2,0.4,0.2,0.8,0.1,1.2c-0.1,0.4-0.3,0.7-0.6,0.8c-0.4,0.2-0.7,0.2-1.1,0.1
		c-0.4-0.1-0.7-0.4-0.9-0.8l-11.6-18.6c-0.2-0.4-0.2-0.8-0.1-1.2c0.1-0.4,0.3-0.7,0.6-0.9c0.3-0.2,0.7-0.2,1,0
		c0.4,0.1,0.7,0.4,0.9,0.8l4.4,7.1l2.1-1.4c0.1-0.1,0.3-0.1,0.4-0.1c0.1,0,0.3,0.1,0.4,0.2l2.3,3.6c0.1,0.1,0.1,0.3,0.1,0.4
		c0,0.1-0.1,0.3-0.2,0.4l-2.2,1.5L-278.9,423.1z"/>
</g>
<g>
	<path class="st0" d="M-265.8,429c1,0.8,1.7,1.3,2.1,1.3c0.4,0,1-0.3,1.7-1.1l22.3-22.2l2.6,2.6l-23.6,23.6
		c-1.3,1.1-2.5,1.6-3.5,1.6c-0.5,0-1.3-0.4-2.2-1.1L-277,423l2.6-2.6L-265.8,429z"/>
</g>
</svg>
