<?xml version="1.0" encoding="utf-8"?>
<!-- Generator: Adobe Illustrator 19.1.0, SVG Export Plug-In . SVG Version: 6.00 Build 0)  -->
<svg version="1.1" id="Layer_1" xmlns="http://www.w3.org/2000/svg" xmlns:xlink="http://www.w3.org/1999/xlink" x="0px" y="0px"
	 viewBox="-277 400.9 40 40" style="enable-background:new -277 400.9 40 40;" xml:space="preserve">
<style type="text/css">
	.st0{fill:#FFFFFF;}
</style>
<g>
	<path class="st0" d="M-262.8,410.1c-0.9-2.6-2.4-4.4-4.2-5.5c-1.9-1.1-5.2-0.9-10,0.6c2.6-3.1,5.8-4.5,9.5-4.2
		c3.7,0.3,6.9,2.6,9.4,6.9l3-1.5l-3.2,8.9l-7.6-3.8L-262.8,410.1z M-247,417c0.3,0,0.6,0.1,0.9,0.2c0.3,0.1,0.5,0.3,0.7,0.5
		c0.2,0.2,0.3,0.5,0.4,0.8c0.1,0.3,0.1,0.6,0,0.9l-2.4,19.2c-0.1,0.7-0.4,1.2-0.9,1.6c-0.5,0.4-1.1,0.6-1.7,0.6h-14.6
		c-0.6,0-1.2-0.2-1.7-0.6c-0.5-0.4-0.8-0.9-0.9-1.6l-3.1-19.3c-0.1-0.3-0.1-0.6,0-0.9s0.2-0.6,0.4-0.8c0.2-0.2,0.4-0.4,0.7-0.5
		c0.3-0.1,0.6-0.2,0.9-0.2L-247,417L-247,417z M-246.2,419.2c0-0.1,0-0.3,0-0.4c0-0.1-0.1-0.2-0.1-0.3c-0.1-0.1-0.2-0.2-0.3-0.2
		c-0.1,0-0.3-0.1-0.4-0.1h-21.4c-0.1,0-0.3,0-0.4,0.1c-0.1,0-0.2,0.1-0.3,0.2c-0.1,0.1-0.2,0.2-0.2,0.3c0,0.1,0,0.3,0,0.4l3,19.2
		c0.1,0.4,0.3,0.7,0.6,0.9c0.3,0.2,0.6,0.4,1,0.4h14.6c0.3,0,0.6-0.1,0.9-0.4c0.3-0.2,0.5-0.5,0.5-0.9L-246.2,419.2z M-264,421.2
		c0.3,0,0.6,0.1,0.8,0.3c0.2,0.3,0.4,0.6,0.4,0.9l1.4,12.8c0,0.4-0.1,0.7-0.3,1c-0.2,0.3-0.5,0.4-0.8,0.4c-0.3,0-0.6-0.1-0.9-0.4
		c-0.2-0.2-0.4-0.6-0.4-1l-1.4-12.8c0-0.4,0.1-0.7,0.3-1C-264.6,421.3-264.4,421.2-264,421.2z M-257.9,421.2c0.3,0,0.6,0.1,0.9,0.3
		s0.4,0.5,0.4,0.9l0,12.9c0,0.4-0.1,0.7-0.3,1c-0.2,0.3-0.5,0.4-0.8,0.5c-0.3,0-0.6-0.1-0.9-0.3c-0.2-0.2-0.4-0.6-0.4-1l0-12.9
		c0-0.4,0.1-0.7,0.3-1C-258.5,421.4-258.2,421.2-257.9,421.2z M-251.5,421.2c0.3,0,0.6,0.1,0.8,0.4c0.2,0.3,0.3,0.6,0.3,1l-1.4,12.8
		c0,0.4-0.1,0.7-0.4,1c-0.2,0.2-0.5,0.4-0.9,0.4c-0.3,0-0.6-0.1-0.8-0.4c-0.2-0.3-0.3-0.6-0.3-1l1.4-12.8c0-0.4,0.2-0.7,0.4-0.9
		C-252.1,421.3-251.9,421.2-251.5,421.2z M-237.2,423.3c0.2,0.4,0.2,0.8,0.1,1.2c-0.1,0.4-0.3,0.7-0.6,0.8c-0.4,0.2-0.7,0.2-1.1,0.1
		c-0.4-0.1-0.7-0.4-0.9-0.8l-11.6-18.6c-0.2-0.4-0.2-0.8-0.1-1.2c0.1-0.4,0.3-0.7,0.6-0.9c0.3-0.2,0.7-0.2,1,0
		c0.4,0.1,0.7,0.4,0.9,0.8l4.4,7.1l2.1-1.4c0.1-0.1,0.3-0.1,0.4-0.1c0.1,0,0.3,0.1,0.4,0.2l2.3,3.6c0.1,0.1,0.1,0.3,0.1,0.4
		c0,0.1-0.1,0.3-0.2,0.4l-2.2,1.5L-237.2,423.3z"/>
</g>
<g>
	<path class="st0" d="M-224.1,429.1c1,0.8,1.7,1.3,2.1,1.3c0.4,0,1-0.3,1.7-1.1l22.3-22.2l2.6,2.6l-23.6,23.6
		c-1.3,1.1-2.5,1.6-3.5,1.6c-0.5,0-1.3-0.4-2.2-1.1l-10.7-10.7l2.6-2.6L-224.1,429.1z"/>
</g>
</svg>
