<?xml version="1.0" standalone="no"?>
<!DOCTYPE svg PUBLIC "-//W3C//DTD SVG 1.1//EN" "http://www.w3.org/Graphics/SVG/1.1/DTD/svg11.dtd" >
<svg xmlns="http://www.w3.org/2000/svg">
<metadata>
<json>
<![CDATA[
{
	"fontFamily": "Kitaboo_6_0",
	"majorVersion": 1,
	"minorVersion": 0,
	"version": "Version 1.0",
	"fontId": "Kitaboo_6_0",
	"psName": "Kitaboo_6_0",
	"subFamily": "Regular",
	"fullName": "Kitaboo_6_0",
	"description": "Font generated by IcoMoon."
}
]]>
</json>
</metadata>
<defs>
<font id="Kitaboo_6_0" horiz-adv-x="1024">
<font-face units-per-em="1024" ascent="960" descent="-64" />
<missing-glyph horiz-adv-x="1024" />
<glyph unicode="&#x20;" horiz-adv-x="512" d="" />
<glyph unicode="&#x22;" glyph-name="Colour-Brush-Dot" data-tags="Kitaboo-Player__Colour-Brush-Dot" d="M512 908.8c-253.44 0-460.8-207.36-460.8-460.8s207.36-460.8 460.8-460.8 460.8 207.36 460.8 460.8-207.36 460.8-460.8 460.8z" />
<glyph unicode="&#x24;" glyph-name="Eraser" data-tags="Eraser" d="M947.2 591.36l-263.68 266.24c-17.92 17.92-40.96 25.6-64 25.6-25.6 0-48.64-10.24-69.12-28.16l-471.040-478.72c-35.84-35.84-38.4-97.28-2.56-133.12l202.24-204.8c17.92-17.92 38.4-25.6 64-25.6 0 0 2.56 0 2.56 0l125.44 2.56c23.040 0 46.080 10.24 64 28.16l409.6 412.16c35.84 38.4 38.4 99.84 2.56 135.68zM468.48 66.56l-125.44-2.56c-10.24 0-20.48 5.12-28.16 10.24l-202.24 204.8c-15.36 15.36-15.36 43.52 2.56 61.44l89.6 92.16 320-325.12-28.16-28.16c-5.12-7.68-15.36-12.8-28.16-12.8zM908.8 494.080l-345.6-348.16-320 322.56 345.6 350.72c7.68 7.68 20.48 12.8 30.72 12.8s20.48-5.12 28.16-12.8l261.12-263.68c17.92-15.36 15.36-43.52 0-61.44z" />
<glyph unicode="&#x2b;" glyph-name="Add" data-tags="Add" d="M947.2 473.6h-409.6v409.6c0 15.36-10.24 25.6-25.6 25.6s-25.6-10.24-25.6-25.6v-409.6h-409.6c-15.36 0-25.6-10.24-25.6-25.6s10.24-25.6 25.6-25.6h409.6v-409.6c0-15.36 10.24-25.6 25.6-25.6s25.6 10.24 25.6 25.6v409.6h409.6c15.36 0 25.6 10.24 25.6 25.6s-10.24 25.6-25.6 25.6z" />
<glyph unicode="&#x2d;" glyph-name="minus" data-tags="minus" d="M947.2 422.4h-870.4c-15.36 0-25.6 10.24-25.6 25.6s10.24 25.6 25.6 25.6h870.4c15.36 0 25.6-10.24 25.6-25.6s-10.24-25.6-25.6-25.6z" />
<glyph unicode="&#x2f;" glyph-name="Teacher-Review" data-tags="Kitaboo-Player-v6_Teacher-Review" d="M355.84 875.52l-189.44-189.44-74.24 74.24c-10.24 10.24-25.6 10.24-33.28 0-10.24-10.24-10.24-25.6 0-33.28l92.16-92.16c2.56-5.12 10.24-7.68 15.36-7.68s12.8 2.56 17.92 7.68l204.8 207.36c10.24 10.24 10.24 25.6 0 33.28-7.68 10.24-23.040 10.24-33.28 0zM376.32 337.92c-10.24 10.24-25.6 10.24-35.84 0l-122.88-122.88-122.88 122.88c-10.24 10.24-25.6 10.24-35.84 0s-10.24-25.6 0-35.84l122.88-122.88-122.88-122.88c-10.24-10.24-10.24-25.6 0-35.84 5.12-5.12 10.24-7.68 17.92-7.68s12.8 2.56 17.92 7.68l122.88 122.88 122.88-122.88c5.12-5.12 12.8-7.68 17.92-7.68s12.8 2.56 17.92 7.68c10.24 10.24 10.24 25.6 0 35.84l-122.88 122.88 122.88 122.88c10.24 10.24 10.24 25.6 0 35.84zM890.88 473.6c-23.040 2.56-46.080-7.68-61.44-25.6l-291.84-281.6c-2.56-2.56-5.12-7.68-5.12-12.8l-20.48-115.2c0-7.68 0-15.36 7.68-20.48 5.12-5.12 10.24-5.12 15.36-5.12 2.56 0 2.56 0 5.12 0l107.52 23.040c5.12 0 7.68 2.56 10.24 5.12l289.28 281.6c33.28 33.28 35.84 89.6 2.56 122.88-15.36 17.92-38.4 28.16-58.88 28.16zM629.76 79.36l-69.12-15.36 12.8 76.8 225.28 220.16 58.88-58.88-227.84-222.72zM916.48 355.84l-25.6-25.6-58.88 58.88 25.6 25.6c7.68 7.68 17.92 12.8 30.72 12.8 10.24 0 20.48-5.12 28.16-12.8 17.92-12.8 15.36-40.96 0-58.88zM563.2 826.88h384c15.36 0 25.6 10.24 25.6 25.6s-10.24 25.6-25.6 25.6h-384c-15.36 0-25.6-10.24-25.6-25.6s10.24-25.6 25.6-25.6zM563.2 678.4h261.12c15.36 0 25.6 10.24 25.6 25.6s-10.24 25.6-25.6 25.6h-261.12c-15.36 0-25.6-10.24-25.6-25.6s10.24-25.6 25.6-25.6z" />
<glyph unicode="&#x30;" glyph-name="mydata" data-tags="notenhighlight" d="M307.2 263.68h-151.040c-30.72 0-53.76 25.6-53.76 53.76v384h578.56l38.4 35.84c7.68 10.24 17.92 15.36 30.72 23.040v43.52c0 58.88-48.64 104.96-104.96 104.96h-486.4c-61.44 0-107.52-48.64-107.52-104.96v-486.4c0-58.88 48.64-104.96 104.96-104.96h143.36l7.68 51.2zM102.4 803.84c0 28.16 23.040 53.76 53.76 53.76h486.4c30.72 0 53.76-25.6 53.76-53.76v-51.2h-593.92v51.2zM614.4 97.28c-7.68 0-12.8 2.56-17.92 7.68l-197.12 186.88c-5.12 5.12-7.68 12.8-7.68 17.92 0 7.68 2.56 12.8 7.68 17.92l373.76 353.28c10.24 10.24 25.6 17.92 43.52 20.48 15.36 0 33.28-5.12 43.52-15.36l92.16-87.040c25.6-23.040 25.6-64 2.56-89.6l-320-401.92c-5.12-5.12-10.24-10.24-20.48-10.24 2.56 0 2.56 0 0 0zM455.68 309.76l156.16-148.48 304.64 384c5.12 7.68 5.12 12.8 2.56 17.92l-92.16 87.040c-5.12 0-7.68 2.56-7.68 0-2.56 0-5.12 0-7.68-5.12l-355.84-335.36zM281.6-12.8c-10.24 0-17.92 5.12-23.040 15.36-5.12 7.68-2.56 20.48 2.56 28.16l107.52 133.12 23.040 153.6c2.56 10.24 7.68 17.92 17.92 20.48s17.92 0 25.6-5.12l197.12-186.88c7.68-5.12 10.24-15.36 7.68-25.6s-10.24-15.36-17.92-17.92l-140.8-35.84-58.88-64c-5.12-5.12-12.8-7.68-17.92-7.68l-122.88-7.68c0 0 0 0 0 0zM435.2 258.56l-15.36-110.080c0-5.12-2.56-7.68-5.12-12.8l-76.8-94.72h53.76l56.32 61.44c2.56 2.56 7.68 5.12 12.8 7.68l102.4 28.16-128 120.32zM394.24 151.040v0 0zM455.68 76.8c-7.68 0-12.8 2.56-17.92 7.68l-53.76 53.76c-10.24 10.24-10.24 25.6 0 35.84s25.6 10.24 35.84 0l53.76-53.76c10.24-10.24 10.24-25.6 0-35.84-2.56-5.12-10.24-7.68-17.92-7.68zM253.44 545.28h263.68l53.76 51.2c0 0-2.56 0-2.56 0h-314.88c-15.36 0-25.6-10.24-25.6-25.6s10.24-25.6 25.6-25.6z" />
<glyph unicode="&#x32;" glyph-name="Close" data-tags="Close" d="M547.84 448l417.28 417.28c10.24 10.24 10.24 25.6 0 35.84s-25.6 10.24-35.84 0l-417.28-417.28-417.28 417.28c-10.24 10.24-25.6 10.24-35.84 0s-10.24-25.6 0-35.84l417.28-417.28-417.28-417.28c-10.24-10.24-10.24-25.6 0-35.84 5.12-5.12 10.24-7.68 17.92-7.68s12.8 2.56 17.92 7.68l417.28 417.28 417.28-417.28c5.12-5.12 12.8-7.68 17.92-7.68s12.8 2.56 17.92 7.68c10.24 10.24 10.24 25.6 0 35.84l-417.28 417.28z" />
<glyph unicode="&#x34;" glyph-name="Student-data_Clear-all" data-tags="Kitaboo-Player-v6_Student-data_Clear-all" d="M189.44 217.6h-87.040c12.8 148.48 133.12 268.8 284.16 279.040h40.96c48.64-2.56 92.16-12.8 128-30.72 12.8-7.68 28.16-2.56 35.84 10.24s2.56 28.16-10.24 35.84c-17.92 10.24-35.84 15.36-56.32 20.48 53.76 38.4 89.6 99.84 89.6 171.52 0 112.64-92.16 204.8-207.36 204.8s-207.36-92.16-207.36-207.36c0-71.68 35.84-135.68 92.16-171.52-138.24-48.64-240.64-181.76-240.64-337.92 0-15.36 10.24-25.6 25.6-25.6h112.64c15.36 0 25.6 10.24 25.6 25.6s-10.24 25.6-25.6 25.6zM250.88 701.44c0 87.040 69.12 156.16 156.16 156.16s156.16-69.12 156.16-156.16c0-79.36-61.44-145.92-138.24-153.6h-35.84c-76.8 7.68-138.24 74.24-138.24 153.6zM972.8 673.28c-2.56 17.92-10.24 33.28-25.6 43.52-28.16 23.040-69.12 17.92-92.16-10.24 0 0 0 0 0 0l-256-332.8-28.16 23.040c-23.040 17.92-53.76 23.040-84.48 17.92-25.6-5.12-46.080-20.48-56.32-35.84l-38.4-48.64c-7.68-10.24-20.48-25.6-28.16-28.16-5.12 0-7.68 2.56-12.8 5.12-7.68 5.12-7.68 15.36-7.68 20.48 2.56 2.56 2.56 2.56 5.12 5.12 7.68 10.24 7.68 23.040-2.56 33.28-7.68 10.24-23.040 10.24-33.28 2.56-7.68-5.12-12.8-10.24-15.36-17.92-51.2-74.24-40.96-138.24 25.6-197.12 0 0 0 0 0 0s0 0 0 0c2.56-2.56 7.68-5.12 10.24-10.24l64-51.2c2.56-2.56 5.12-5.12 7.68-7.68 0 0 2.56 0 2.56 0l84.48-66.56c28.16-23.040 56.32-30.72 81.92-30.72 33.28 0 61.44 12.8 74.24 25.6 38.4 33.28 58.88 51.2 94.72 122.88 28.16 53.76-2.56 128-43.52 153.6l2.56 5.12 256 332.8c12.8 10.24 17.92 28.16 15.36 46.080zM624.64 51.2c0 0-40.96-33.28-92.16 5.12l-30.72 23.040c20.48 7.68 43.52 23.040 64 46.080 7.68 10.24 7.68 28.16-5.12 35.84-10.24 7.68-28.16 7.68-35.84-5.12-33.28-43.52-71.68-35.84-84.48-30.72l-20.48 17.92c23.040 7.68 43.52 25.6 64 56.32 7.68 12.8 5.12 28.16-7.68 35.84s-28.16 5.12-35.84-7.68c-33.28-53.76-71.68-38.4-81.92-33.28-28.16 25.6-38.4 48.64-35.84 74.24 0 0 2.56-2.56 2.56-2.56 15.36-12.8 33.28-17.92 48.64-15.36 30.72 2.56 48.64 28.16 61.44 46.080l5.12 7.68 243.2-189.44c-20.48-28.16-35.84-40.96-58.88-64zM706.56 161.28l-235.52 184.32 2.56 2.56c0 0 2.56 2.56 2.56 5.12 2.56 2.56 10.24 10.24 23.040 12.8 7.68 2.56 25.6 2.56 40.96-7.68l138.24-107.52c0 0 2.56-2.56 2.56-2.56 17.92-12.8 40.96-56.32 25.6-87.040zM919.040 655.36l-253.44-327.68-23.040 17.92 253.44 327.68c5.12 5.12 12.8 7.68 20.48 2.56 2.56-2.56 5.12-5.12 5.12-10.24 0-2.56 0-7.68-2.56-10.24z" />
<glyph unicode="&#x36;" glyph-name="Up-arrow" data-tags="Up arrow" d="M947.2 204.8c-7.68 0-12.8 2.56-17.92 7.68l-417.28 417.28-417.28-417.28c-10.24-10.24-25.6-10.24-35.84 0s-10.24 25.6 0 35.84l435.2 435.2c10.24 10.24 25.6 10.24 35.84 0l435.2-435.2c10.24-10.24 10.24-25.6 0-35.84-5.12-5.12-10.24-7.68-17.92-7.68z" />
<glyph unicode="&#x37;" glyph-name="Down-arrow" data-tags="Down arrow" d="M512 204.8c-7.68 0-12.8 2.56-17.92 7.68l-435.2 435.2c-10.24 10.24-10.24 25.6 0 35.84s25.6 10.24 35.84 0l417.28-417.28 417.28 417.28c10.24 10.24 25.6 10.24 35.84 0s10.24-25.6 0-35.84l-435.2-435.2c-5.12-5.12-10.24-7.68-17.92-7.68z" />
<glyph unicode="&#x3a;" glyph-name="Student-data-Submit" data-tags="Kitaboo-Player-v6_Student-data-Submit" d="M189.44 192h-87.040c12.8 171.52 148.48 307.2 312.32 307.2 40.96 0 79.36-5.12 112.64-17.92 12.8-5.12 28.16 2.56 33.28 15.36s-2.56 28.16-15.36 33.28c-5.12 2.56-7.68 2.56-12.8 2.56 56.32 35.84 92.16 99.84 92.16 171.52 0 112.64-92.16 204.8-204.8 204.8s-204.8-92.16-204.8-204.8c0-71.68 35.84-133.12 92.16-171.52-148.48-48.64-256-194.56-256-366.080 0-15.36 10.24-25.6 25.6-25.6h112.64c15.36 0 25.6 10.24 25.6 25.6s-10.24 25.6-25.6 25.6zM266.24 704c0 84.48 69.12 153.6 153.6 153.6s153.6-69.12 153.6-153.6c0-84.48-69.12-153.6-153.6-153.6s-153.6 69.12-153.6 153.6zM972.8 197.12c-2.56 35.84-12.8 143.36-171.52 156.16-20.48 30.72-84.48 102.4-204.8 94.72-122.88-7.68-168.96-92.16-179.2-148.48-33.28-2.56-97.28-15.36-133.12-64-28.16-38.4-33.28-87.040-15.36-145.92 0-2.56 17.92-79.36 128-99.84 2.56 0 2.56 0 5.12 0h378.88c0 0 2.56 0 5.12 0 20.48 0 92.16 2.56 140.8 56.32 35.84 33.28 51.2 84.48 46.080 151.040zM888.32 79.36c-40.96-40.96-107.52-40.96-110.080-40.96h-376.32c-71.68 12.8-84.48 58.88-84.48 61.44-12.8 43.52-12.8 79.36 5.12 102.4 33.28 46.080 115.2 43.52 115.2 43.52 15.36 0 25.6 10.24 25.6 25.6 0 5.12 5.12 115.2 135.68 122.88 115.2 7.68 163.84-76.8 166.4-79.36 5.12-7.68 12.8-12.8 20.48-12.8 110.080-2.56 130.56-53.76 135.68-110.080 2.56-48.64-7.68-87.040-33.28-112.64zM642.56 322.56c-10.24 10.24-25.6 10.24-35.84 0l-102.4-102.4c-10.24-10.24-10.24-25.6 0-35.84s25.6-10.24 35.84 0l56.32 56.32v-138.24c0-15.36 10.24-25.6 25.6-25.6s25.6 10.24 25.6 25.6v140.8l58.88-58.88c5.12-5.12 12.8-7.68 17.92-7.68s12.8 2.56 17.92 7.68c10.24 10.24 10.24 25.6 0 35.84l-99.84 102.4z" />
<glyph unicode="&#x3c;" glyph-name="Undo" data-tags="Undo" d="M650.24 665.6h-509.44l184.32 186.88c10.24 10.24 10.24 25.6 0 35.84s-25.6 10.24-35.84 0l-222.72-225.28c-7.68-2.56-15.36-12.8-15.36-23.040 0-2.56 0-2.56 0-5.12 0-5.12 2.56-10.24 7.68-15.36l225.28-227.84c5.12-5.12 12.8-7.68 17.92-7.68 7.68 0 12.8 2.56 17.92 7.68 10.24 10.24 10.24 25.6 0 35.84l-184.32 186.88h514.56c148.48 0 271.36-125.44 271.36-279.040v-7.68c0-153.6-120.32-279.040-271.36-279.040h-427.52c-15.36 0-25.6-10.24-25.6-25.6s10.24-25.6 25.6-25.6h427.52c176.64 0 322.56 148.48 322.56 330.24v7.68c0 181.76-143.36 330.24-322.56 330.24z" />
<glyph unicode="&#x3e;" glyph-name="Redo" data-tags="Redo" d="M704 391.68c5.12-5.12 10.24-7.68 17.92-7.68s12.8 2.56 17.92 7.68l225.28 227.84c5.12 5.12 5.12 10.24 7.68 15.36 0 2.56 0 2.56 0 5.12 0 10.24-7.68 20.48-15.36 23.040l-222.72 225.28c-10.24 10.24-25.6 10.24-35.84 0s-10.24-25.6 0-35.84l184.32-186.88h-509.44c-179.2 0-322.56-148.48-322.56-330.24v-7.68c0-181.76 143.36-330.24 322.56-330.24h427.52c15.36 0 25.6 10.24 25.6 25.6s-10.24 25.6-25.6 25.6h-427.52c-151.040 2.56-271.36 128-271.36 281.6v7.68c0 153.6 120.32 279.040 271.36 279.040h514.56l-184.32-186.88c-10.24-12.8-10.24-28.16 0-38.4z" />
<glyph unicode="&#x40;" glyph-name="Multi-Resource-Markup" data-tags="Kitaboo-Player-v6_Muti-Resource-Markup" d="M878.080 678.4h-15.36c0 0 0 2.56 0 2.56 0 61.44-48.64 112.64-112.64 115.2-2.56 64-53.76 112.64-115.2 112.64h-468.48c-64 0-115.2-51.2-115.2-115.2v-468.48c0-61.44 48.64-112.64 112.64-115.2 2.56-61.44 53.76-112.64 115.2-112.64 0 0 2.56 0 2.56 0v-15.36c0-53.76 43.52-94.72 94.72-94.72h368.64l10.24 10.24h2.56v2.56l215.040 202.24v378.88c0 53.76-43.52 97.28-94.72 97.28zM163.84 680.96v-419.84c-35.84 2.56-61.44 30.72-61.44 64v468.48c0 35.84 28.16 64 64 64h468.48c33.28 0 61.44-25.6 64-61.44h-419.84c-64 0-115.2-51.2-115.2-115.2zM281.6 581.12v-435.2c0 0-2.56 0-2.56 0-35.84 0-64 28.16-64 64v471.040c0 35.84 28.16 64 64 64h468.48c35.84 0 64-28.16 64-64 0 0 0-2.56 0-2.56h-435.2c-51.2 0-94.72-43.52-94.72-97.28zM332.8 81.92v499.2c0 25.6 20.48 46.080 46.080 46.080h499.2c25.6 0 46.080-20.48 46.080-46.080v-327.68h-107.52c-61.44 0-110.080-48.64-110.080-110.080v-104.96h-327.68c-25.6 0-46.080 20.48-46.080 43.52zM757.76 143.36c0 33.28 25.6 58.88 58.88 58.88h84.48l-140.8-133.12v74.24zM440.32 422.4h371.2c15.36 0 25.6 10.24 25.6 25.6s-10.24 25.6-25.6 25.6h-371.2c-15.36 0-25.6-10.24-25.6-25.6s12.8-25.6 25.6-25.6zM606.72 299.52h-166.4c-15.36 0-25.6-10.24-25.6-25.6s10.24-25.6 25.6-25.6h166.4c15.36 0 25.6 10.24 25.6 25.6s-10.24 25.6-25.6 25.6z" />
<glyph unicode="&#x41;" glyph-name="Print" data-tags="Print" d="M872.96 504.32c0-21.208-17.192-38.4-38.4-38.4s-38.4 17.192-38.4 38.4c0 21.208 17.192 38.4 38.4 38.4s38.4-17.192 38.4-38.4zM844.8 642.56h-51.2v240.64c0 15.36-12.8 25.6-25.6 25.6h-512c-12.8 0-25.6-12.8-25.6-25.6v-240.64h-51.2c-71.68 0-128-56.32-128-128v-243.2c0-20.48 17.92-38.4 38.4-38.4h138.24v-220.16c0-15.36 10.24-25.6 25.6-25.6h512c15.36 0 25.6 10.24 25.6 25.6v220.16c2.56 0 5.12 0 5.12 0h140.8c20.48 0 38.4 17.92 38.4 38.4v243.2c-2.56 71.68-58.88 128-130.56 128zM281.6 857.6h460.8v-215.040h-460.8v215.040zM737.28 38.4h-460.8v358.4h460.8v-358.4zM921.6 284.16h-133.12v138.24c0 15.36-10.24 25.6-25.6 25.6h-512c-15.36 0-25.6-10.24-25.6-25.6v-138.24h-122.88v230.4c0 43.52 33.28 76.8 76.8 76.8h76.8c0 0 0 0 0 0h512c0 0 0 0 0 0h76.8c43.52 0 76.8-33.28 76.8-76.8v-230.4zM391.68 253.44h232.96c15.36 0 25.6 10.24 25.6 25.6s-10.24 25.6-25.6 25.6h-232.96c-15.36 0-25.6-10.24-25.6-25.6s10.24-25.6 25.6-25.6zM391.68 130.56h232.96c15.36 0 25.6 10.24 25.6 25.6s-10.24 25.6-25.6 25.6h-232.96c-15.36 0-25.6-10.24-25.6-25.6s10.24-25.6 25.6-25.6z" />
<glyph unicode="&#x42;" glyph-name="Setting" data-tags="Setting" d="M560.64-12.8h-97.28c-40.96 0-71.68 33.28-71.68 71.68v28.16c0 10.24-7.68 20.48-17.92 25.6s-23.040 2.56-30.72-5.12l-20.48-20.48c-28.16-28.16-74.24-28.16-102.4 0l-69.12 69.12c-28.16 28.16-28.16 74.24 0 102.4l20.48 20.48c7.68 7.68 7.68 17.92 5.12 30.72-5.12 10.24-15.36 17.92-25.6 17.92h-28.16c-40.96 0-71.68 33.28-71.68 71.68v97.28c0 40.96 33.28 71.68 71.68 71.68h28.16c10.24 0 20.48 7.68 25.6 17.92 2.56 12.8 2.56 23.040-5.12 30.72l-20.48 20.48c-28.16 28.16-28.16 74.24 0 102.4l69.12 69.12c28.16 28.16 74.24 28.16 102.4 0l20.48-20.48c7.68-7.68 17.92-7.68 30.72-5.12 10.24 5.12 17.92 15.36 17.92 25.6v28.16c0 40.96 33.28 71.68 71.68 71.68h97.28c40.96 0 71.68-33.28 71.68-71.68v-28.16c0-10.24 7.68-20.48 17.92-25.6s23.040-2.56 30.72 5.12l20.48 20.48c28.16 28.16 74.24 28.16 102.4 0l69.12-69.12c28.16-28.16 28.16-74.24 0-102.4l-20.48-20.48c-7.68-7.68-10.24-17.92-5.12-30.72 5.12-10.24 15.36-17.92 25.6-17.92h28.16c40.96 0 71.68-33.28 71.68-71.68v-97.28c0-40.96-33.28-71.68-71.68-71.68h-28.16c-10.24 0-20.48-7.68-25.6-17.92s-2.56-23.040 5.12-30.72l20.48-20.48c28.16-28.16 28.16-74.24 0-102.4l-69.12-69.12c-28.16-28.16-74.24-28.16-102.4 0l-20.48 20.48c-7.68 7.68-17.92 10.24-30.72 5.12-10.24-5.12-17.92-15.36-17.92-25.6v-28.16c0-38.4-30.72-71.68-71.68-71.68zM360.96 163.84c10.24 0 20.48-2.56 30.72-5.12 28.16-12.8 48.64-38.4 48.64-69.12v-28.16c0-12.8 10.24-23.040 23.040-23.040h97.28c12.8 0 23.040 10.24 23.040 23.040v28.16c0 30.72 17.92 56.32 48.64 69.12 28.16 12.8 61.44 5.12 81.92-15.36l20.48-20.48c10.24-10.24 25.6-10.24 33.28 0l69.12 69.12c10.24 10.24 10.24 25.6 0 33.28l-17.92 20.48c-20.48 20.48-28.16 53.76-15.36 81.92s38.4 48.64 69.12 48.64h28.16c12.8 0 23.040 10.24 23.040 23.040v97.28c0 12.8-10.24 23.040-23.040 23.040h-28.16c-30.72 0-56.32 17.92-69.12 48.64-12.8 28.16-5.12 61.44 15.36 81.92l20.48 20.48c10.24 10.24 10.24 25.6 0 33.28l-71.68 69.12c-10.24 10.24-25.6 10.24-33.28 0l-20.48-17.92c-20.48-20.48-53.76-28.16-81.92-15.36s-48.64 38.4-48.64 69.12v28.16c0 12.8-10.24 23.040-23.040 23.040h-97.28c-12.8 0-23.040-10.24-23.040-23.040v-28.16c0-30.72-17.92-56.32-48.64-69.12-28.16-12.8-61.44-5.12-81.92 15.36l-20.48 20.48c-10.24 10.24-25.6 10.24-33.28 0l-69.12-71.68c-10.24-10.24-10.24-25.6 0-33.28l17.92-20.48c20.48-20.48 28.16-53.76 15.36-81.92s-38.4-48.64-69.12-48.64h-28.16c-12.8 0-23.040-10.24-23.040-23.040v-97.28c0-12.8 10.24-23.040 23.040-23.040h28.16c30.72 0 56.32-17.92 69.12-48.64 12.8-28.16 5.12-61.44-15.36-81.92l-20.48-20.48c-10.24-10.24-10.24-25.6 0-33.28l69.12-69.12c10.24-10.24 25.6-10.24 33.28 0l20.48 20.48c15.36 12.8 33.28 20.48 53.76 20.48zM512 294.4c-84.48 0-153.6 69.12-153.6 153.6s69.12 153.6 153.6 153.6 153.6-69.12 153.6-153.6-69.12-153.6-153.6-153.6zM512 550.4c-56.32 0-102.4-46.080-102.4-102.4s46.080-102.4 102.4-102.4 102.4 46.080 102.4 102.4-46.080 102.4-102.4 102.4z" />
<glyph unicode="&#x43;" glyph-name="Delete" data-tags="Delete" d="M422.4 189.44c15.36 0 25.6 10.24 25.6 25.6v307.2c0 15.36-10.24 25.6-25.6 25.6s-25.6-10.24-25.6-25.6v-307.2c0-12.8 12.8-25.6 25.6-25.6zM601.6 189.44c15.36 0 25.6 10.24 25.6 25.6v307.2c0 15.36-10.24 25.6-25.6 25.6s-25.6-10.24-25.6-25.6v-307.2c0-12.8 10.24-25.6 25.6-25.6zM947.2 755.2h-184.32c0 2.56 0 2.56 0 5.12l-17.92 71.68c-15.36 51.2-33.28 76.8-84.48 76.8h-299.52c-25.6 0-48.64-10.24-61.44-25.6-17.92-23.040-20.48-38.4-23.040-51.2v-5.12c-2.56-12.8-5.12-28.16-10.24-43.52l-5.12-23.040c0-2.56 0-5.12 0-7.68h-184.32c-15.36 2.56-25.6-7.68-25.6-23.040s10.24-25.6 25.6-25.6h74.24l46.080-593.92c5.12-69.12 64-122.88 133.12-122.88h366.080c69.12 0 128 53.76 133.12 122.88l43.52 593.92h74.24c15.36 0 25.6 10.24 25.6 25.6s-10.24 25.6-25.6 25.6zM775.68 115.2c-2.56-43.52-38.4-76.8-81.92-76.8h-366.080c-43.52 0-79.36 33.28-81.92 76.8l-43.52 588.8h619.52l-46.080-588.8zM317.44 773.12c5.12 15.36 7.68 30.72 10.24 43.52 0 2.56 0 5.12 0 7.68 2.56 7.68 2.56 15.36 10.24 25.6 5.12 5.12 12.8 7.68 23.040 7.68h299.52c17.92 0 23.040 0 35.84-40.96l15.36-61.44h-399.36l5.12 17.92z" />
<glyph unicode="&#x46;" glyph-name="Mark-as-Read-Check-icon1" data-tags="Mark as Read (Check icon)" d="M844.8 908.8h-665.6c-71.68 0-128-56.32-128-128v-665.6c0-71.68 56.32-128 128-128h665.6c71.68 0 128 56.32 128 128v665.6c0 71.68-56.32 128-128 128zM921.6 115.2c0-43.52-33.28-76.8-76.8-76.8h-665.6c-43.52 0-76.8 33.28-76.8 76.8v665.6c0 43.52 33.28 76.8 76.8 76.8h665.6c43.52 0 76.8-33.28 76.8-76.8v-665.6zM750.080 645.12l-335.36-340.48-140.8 143.36c-10.24 10.24-25.6 10.24-35.84 0s-10.24-25.6 0-35.84l158.72-158.72c5.12-5.12 10.24-7.68 17.92-7.68s12.8 2.56 17.92 7.68l355.84 358.4c10.24 10.24 10.24 25.6 0 35.84-10.24 7.68-28.16 7.68-38.4-2.56z" />
<glyph unicode="&#x47;" glyph-name="Back" data-tags="Back" d="M729.6-12.8c-7.68 0-12.8 2.56-17.92 7.68l-435.2 435.2c-10.24 10.24-10.24 25.6 0 35.84l435.2 435.2c10.24 10.24 25.6 10.24 35.84 0s10.24-25.6 0-35.84l-417.28-417.28 417.28-417.28c10.24-10.24 10.24-25.6 0-35.84-5.12-5.12-10.24-7.68-17.92-7.68z" />
<glyph unicode="&#x48;" glyph-name="Next" data-tags="Next" d="M294.4-12.8c-7.68 0-12.8 2.56-17.92 7.68-10.24 10.24-10.24 25.6 0 35.84l417.28 417.28-417.28 417.28c-10.24 10.24-10.24 25.6 0 35.84s25.6 10.24 35.84 0l435.2-435.2c10.24-10.24 10.24-25.6 0-35.84l-435.2-435.2c-5.12-5.12-10.24-7.68-17.92-7.68z" />
<glyph unicode="&#x49;" glyph-name="Thumbnail-Jump-Previous" data-tags="Kitaboo-Player-v6_Thumbnail-Jump-Previous" d="M844.8 296.96c-15.36 0-25.6-10.24-25.6-25.6v-58.88c0-53.76-43.52-97.28-99.84-97.28h-517.12c-56.32 0-99.84 43.52-99.84 97.28v471.040c0 53.76 43.52 97.28 99.84 97.28h517.12c25.6 0 51.2-10.24 71.68-28.16 28.16-25.6 28.16-58.88 28.16-69.12s0-20.48 0-28.16c0-10.24 0-20.48 0-23.040-2.56-12.8 7.68-25.6 23.040-28.16s25.6 7.68 28.16 23.040c0 7.68 0 15.36 0 30.72 0 7.68 0 17.92 0 25.6 0 17.92-5.12 66.56-43.52 104.96-30.72 28.16-66.56 43.52-107.52 43.52h-517.12c-84.48 0-151.040-66.56-151.040-148.48v-471.040c0-81.92 66.56-148.48 151.040-148.48h517.12c81.92 0 151.040 66.56 151.040 148.48v58.88c0 12.8-12.8 25.6-25.6 25.6zM947.2 468.48h-340.48l125.44 125.44c10.24 10.24 10.24 25.6 0 35.84s-25.6 10.24-35.84 0l-168.96-168.96c-5.12-5.12-7.68-10.24-7.68-17.92s2.56-12.8 7.68-17.92l168.96-168.96c5.12-5.12 12.8-7.68 17.92-7.68s12.8 2.56 17.92 7.68c10.24 10.24 10.24 25.6 0 35.84l-125.44 125.44h340.48c15.36 0 25.6 10.24 25.6 25.6s-10.24 25.6-25.6 25.6zM227.84 678.4c-28.16 0-51.2-23.040-51.2-51.2v-358.4c0-28.16 23.040-51.2 51.2-51.2h153.6c28.16 0 51.2 23.040 51.2 51.2v358.4c0 28.16-23.040 51.2-51.2 51.2h-153.6zM381.44 268.8h-153.6v358.4h153.6v-358.4z" />
<glyph unicode="&#x4a;" glyph-name="Thumbnail-Jump-Next" data-tags="Kitaboo-Player-v6_Thumbnail-Jump-Next" d="M821.76 832h-517.12c-40.96 0-76.8-15.36-107.52-43.52-38.4-38.4-43.52-87.040-43.52-104.96 0-10.24 0-17.92 0-25.6 0-15.36 0-25.6 0-30.72 2.56-12.8 12.8-23.040 28.16-23.040 12.8 2.56 23.040 15.36 23.040 28.16 0 2.56 0 12.8 0 23.040 0 7.68 0 17.92 0 28.16s2.56 40.96 28.16 69.12c20.48 17.92 46.080 28.16 71.68 28.16h517.12c53.76 0 99.84-43.52 99.84-97.28v-471.040c0-53.76-43.52-97.28-99.84-97.28h-517.12c-53.76 0-99.84 43.52-99.84 97.28v58.88c0 15.36-10.24 25.6-25.6 25.6s-25.6-10.24-25.6-25.6v-58.88c0-81.92 66.56-148.48 151.040-148.48h517.12c81.92 0 151.040 66.56 151.040 148.48v471.040c0 81.92-66.56 148.48-151.040 148.48zM291.84 291.84c-10.24-10.24-10.24-25.6 0-35.84 5.12-5.12 12.8-7.68 17.92-7.68s12.8 2.56 17.92 7.68l168.96 168.96c5.12 5.12 7.68 10.24 7.68 17.92s-2.56 12.8-7.68 17.92l-168.96 168.96c-10.24 10.24-25.6 10.24-35.84 0s-10.24-25.6 0-35.84l125.44-125.44h-340.48c-15.36 0-25.6-10.24-25.6-25.6s10.24-25.6 25.6-25.6h340.48l-125.44-125.44zM796.16 217.6c28.16 0 51.2 23.040 51.2 51.2v358.4c0 28.16-23.040 51.2-51.2 51.2h-153.6c-28.16 0-51.2-23.040-51.2-51.2v-358.4c0-28.16 23.040-51.2 51.2-51.2h153.6zM796.16 268.8v0zM642.56 627.2h153.6v-358.4h-153.6v358.4z" />
<glyph unicode="&#x4b;" glyph-name="Pause-without-circle" data-tags="Pause-without-circle" d="M286.72 908.8c-43.52 0-81.92-35.84-81.92-81.92v-760.32c0-46.080 35.84-81.92 81.92-81.92s81.92 35.84 81.92 81.92v760.32c0 46.080-35.84 81.92-81.92 81.92zM737.28 908.8c-46.080 0-81.92-35.84-81.92-81.92v-760.32c0-46.080 35.84-81.92 81.92-81.92s81.92 35.84 81.92 81.92v760.32c0 46.080-38.4 81.92-81.92 81.92z" />
<glyph unicode="&#x4c;" glyph-name="Play-without-circle" data-tags="Play-without-circle" d="M358.4 5.12l491.52 368.64c48.64 35.84 48.64 110.080 0 145.92l-491.52 371.2c-61.44 46.080-145.92 2.56-145.92-74.24v-737.28c-2.56-76.8 84.48-120.32 145.92-74.24z" />
<glyph unicode="&#x52;" glyph-name="Single-page-view" data-tags="Single page view" d="M870.4 558.080c0 7.68-2.56 12.8-7.68 17.92l-309.76 325.12c-5.12 5.12-12.8 7.68-20.48 7.68h-220.16c-53.76 0-158.72-33.28-158.72-158.72v-606.72c0-87.040 71.68-158.72 158.72-158.72h399.36c115.2 0 158.72 84.48 158.72 158.72 0 33.28 0 232.96 0 414.72zM535.040 842.24l256-266.24h-168.96c-48.64 0-87.040 38.4-87.040 87.040v179.2zM819.2 143.36c0-25.6-7.68-104.96-107.52-104.96h-399.36c-58.88 0-107.52 48.64-107.52 107.52v604.16c0 102.4 97.28 104.96 107.52 107.52h171.52v-194.56c0-76.8 61.44-138.24 138.24-138.24h197.12c0-171.52 0-350.72 0-381.44z" />
<glyph unicode="&#x53;" glyph-name="Two-page-view" data-tags="Two page view" d="M965.12 693.76l-204.8 207.36c-2.56 5.12-10.24 7.68-17.92 7.68h-143.36c-28.16 0-64-10.24-87.040-38.4-23.040 25.6-58.88 38.4-87.040 38.4h-143.36c-7.68 0-12.8-2.56-17.92-7.68l-204.8-207.36c-5.12-5.12-7.68-10.24-7.68-17.92v-581.12c0-38.4 25.6-107.52 112.64-107.52h261.12c35.84 0 66.56 15.36 87.040 40.96 20.48-25.6 51.2-40.96 87.040-40.96h261.12c87.040 0 112.64 69.12 112.64 110.080v578.56c0 7.68-2.56 12.8-7.68 17.92zM906.24 680.96h-99.84c-33.28 0-61.44 28.16-61.44 61.44v102.4l161.28-163.84zM281.6 847.36v-104.96c0-33.28-28.16-61.44-61.44-61.44h-102.4l163.84 166.4zM424.96 38.4h-261.12c-53.76 0-61.44 35.84-61.44 58.88v532.48h117.76c61.44 0 112.64 51.2 112.64 112.64v115.2h92.16c5.12 0 61.44-2.56 61.44-58.88v-701.44c0-33.28-28.16-58.88-61.44-58.88zM860.16 38.4h-261.12c-33.28 0-61.44 25.6-61.44 58.88v701.44c0 56.32 51.2 58.88 61.44 58.88h97.28v-115.2c0-61.44 51.2-112.64 112.64-112.64h112.64v-532.48c0-23.040-7.68-58.88-61.44-58.88z" />
<glyph unicode="&#x56;" glyph-name="Italic" data-tags="Italic" d="M153.6 79.36h225.28l148.48 737.28h-230.4l23.040 92.16h570.88l-20.48-92.16h-230.4l-148.48-737.28h232.96l-20.48-92.16h-570.88l20.48 92.16z" />
<glyph unicode="&#x5c;" glyph-name="Caret-Right" data-tags="Kitaboo-Player__Caret-Right" d="M268.8 890.88c-10.24-10.24-17.92-25.6-17.92-40.96v-806.4c0-15.36 5.12-28.16 17.92-40.96 10.24-10.24 25.6-17.92 40.96-17.92s28.16 5.12 40.96 17.92l401.92 404.48c10.24 10.24 17.92 25.6 17.92 40.96s-5.12 28.16-17.92 40.96l-401.92 401.92c-10.24 10.24-25.6 17.92-40.96 17.92s-28.16-5.12-40.96-17.92v0z" />
<glyph unicode="&#x61;" glyph-name="Home" data-tags="Home" d="M965.12 496.64l-381.44 386.56c-38.4 35.84-94.72 35.84-133.12 0l-391.68-391.68c-10.24-10.24-10.24-25.6 0-35.84 5.12-5.12 10.24-7.68 17.92-7.68s12.8 2.56 17.92 7.68l33.28 33.28v-427.52c0-40.96 33.28-74.24 74.24-74.24h622.080c40.96 0 74.24 33.28 74.24 74.24v435.2l33.28-33.28c10.24-10.24 25.6-10.24 35.84 0 7.68 7.68 7.68 23.040-2.56 33.28zM422.4 35.84v296.96c0 7.68 5.12 15.36 12.8 15.36h153.6c7.68 0 12.8-7.68 12.8-15.36v-296.96h-179.2zM844.8 58.88c0-12.8-10.24-23.040-23.040-23.040h-168.96v296.96c0 38.4-28.16 66.56-64 66.56h-153.6c-35.84 0-64-30.72-64-66.56v-296.96h-168.96c-12.8 0-23.040 10.24-23.040 23.040v481.28l304.64 304.64c17.92 17.92 46.080 17.92 61.44 0l299.52-299.52v-486.4z" />
<glyph unicode="&#x62;" glyph-name="TOC" data-tags="TOC" d="M281.6 832h665.6c15.36 0 25.6 10.24 25.6 25.6s-10.24 25.6-25.6 25.6h-665.6c-15.36 0-25.6-10.24-25.6-25.6 0-12.8 10.24-25.6 25.6-25.6zM102.4 908.8c-28.16 0-51.2-23.040-51.2-51.2s23.040-51.2 51.2-51.2 51.2 23.040 51.2 51.2c0 28.16-23.040 51.2-51.2 51.2zM947.2 601.6h-460.8c-15.36 0-25.6-10.24-25.6-25.6s10.24-25.6 25.6-25.6h460.8c15.36 0 25.6 10.24 25.6 25.6 0 12.8-12.8 25.6-25.6 25.6zM256 576c0-28.16 23.040-51.2 51.2-51.2s51.2 23.040 51.2 51.2c0 28.16-23.040 51.2-51.2 51.2s-51.2-23.040-51.2-51.2zM947.2 348.16h-665.6c-15.36 0-25.6-10.24-25.6-25.6s10.24-25.6 25.6-25.6h665.6c15.36 0 25.6 10.24 25.6 25.6 0 12.8-10.24 25.6-25.6 25.6zM153.6 322.56c0-28.277-22.923-51.2-51.2-51.2s-51.2 22.923-51.2 51.2c0 28.277 22.923 51.2 51.2 51.2s51.2-22.923 51.2-51.2zM947.2 64h-460.8c-15.36 0-25.6-10.24-25.6-25.6s10.24-25.6 25.6-25.6h460.8c15.36 0 25.6 10.24 25.6 25.6s-12.8 25.6-25.6 25.6zM358.4 38.4c0-28.277-22.923-51.2-51.2-51.2s-51.2 22.923-51.2 51.2c0 28.277 22.923 51.2 51.2 51.2s51.2-22.923 51.2-51.2z" />
<glyph unicode="&#x64;" glyph-name="Search" data-tags="Search" d="M965.12 30.72l-232.96 232.96c58.88 69.12 97.28 158.72 97.28 256 0 215.040-174.080 389.12-389.12 389.12s-389.12-174.080-389.12-389.12c0-215.040 174.080-389.12 389.12-389.12 97.28 0 186.88 35.84 256 97.28l232.96-232.96c5.12-5.12 10.24-7.68 17.92-7.68s12.8 2.56 17.92 7.68c10.24 10.24 10.24 25.6 0 35.84zM102.4 519.68c0 186.88 151.040 337.92 337.92 337.92s337.92-151.040 337.92-337.92-151.040-337.92-337.92-337.92-337.92 151.040-337.92 337.92z" />
<glyph unicode="&#x65;" glyph-name="Highlight" data-tags="Highlight" d="M949.76 773.12l-125.44 115.2c-12.8 15.36-33.28 20.48-51.2 20.48-20.48 0-38.4-10.24-51.2-23.040l-488.96-463.36c0 0 0 0 0 0-2.56-2.56-2.56-5.12-5.12-7.68 0 0 0 0 0 0 0-2.56-2.56-5.12-2.56-7.68l-28.16-204.8-140.8-174.080c-5.12-7.68-7.68-17.92-2.56-28.16 5.12-7.68 12.8-12.8 23.040-12.8h158.72c7.68 0 12.8 2.56 17.92 7.68l79.36 87.040 186.88 48.64c2.56 0 2.56 0 5.12 2.56 0 0 0 0 0 0 2.56 2.56 5.12 2.56 7.68 5.12 0 0 0 0 0 0l417.28 529.92c30.72 30.72 28.16 79.36 0 104.96zM225.28 38.4h-94.72l87.040 104.96 61.44-48.64-53.76-56.32zM314.88 130.56l-69.12 56.32c0 2.56 0 2.56 2.56 5.12l20.48 161.28 192-184.32-145.92-38.4zM913.92 701.44l-401.92-509.44-222.72 212.48 468.48 445.44c5.12 5.12 10.24 7.68 15.36 7.68s12.8-2.56 15.36-5.12l125.44-115.2c10.24-10.24 10.24-25.6 0-35.84z" />
<glyph unicode="&#x67;" glyph-name="Thumbnail-view" data-tags="Thumbnail view" d="M384 908.8h-256c-43.52 0-76.8-33.28-76.8-76.8v-256c0-43.52 33.28-76.8 76.8-76.8h256c43.52 0 76.8 33.28 76.8 76.8v256c0 43.52-33.28 76.8-76.8 76.8zM409.6 576c0-15.36-10.24-25.6-25.6-25.6h-256c-15.36 0-25.6 10.24-25.6 25.6v256c0 15.36 10.24 25.6 25.6 25.6h256c15.36 0 25.6-10.24 25.6-25.6v-256zM896 908.8h-256c-43.52 0-76.8-33.28-76.8-76.8v-256c0-43.52 33.28-76.8 76.8-76.8h256c43.52 0 76.8 33.28 76.8 76.8v256c0 43.52-33.28 76.8-76.8 76.8zM921.6 576c0-15.36-10.24-25.6-25.6-25.6h-256c-15.36 0-25.6 10.24-25.6 25.6v256c0 15.36 10.24 25.6 25.6 25.6h256c15.36 0 25.6-10.24 25.6-25.6v-256zM384 396.8h-256c-43.52 0-76.8-33.28-76.8-76.8v-256c0-43.52 33.28-76.8 76.8-76.8h256c43.52 0 76.8 33.28 76.8 76.8v256c0 43.52-33.28 76.8-76.8 76.8zM409.6 64c0-15.36-10.24-25.6-25.6-25.6h-256c-15.36 0-25.6 10.24-25.6 25.6v256c0 15.36 10.24 25.6 25.6 25.6h256c15.36 0 25.6-10.24 25.6-25.6v-256zM896 396.8h-256c-43.52 0-76.8-33.28-76.8-76.8v-256c0-43.52 33.28-76.8 76.8-76.8h256c43.52 0 76.8 33.28 76.8 76.8v256c0 43.52-33.28 76.8-76.8 76.8zM921.6 64c0-15.36-10.24-25.6-25.6-25.6h-256c-15.36 0-25.6 10.24-25.6 25.6v256c0 15.36 10.24 25.6 25.6 25.6h256c15.36 0 25.6-10.24 25.6-25.6v-256z" />
<glyph unicode="&#x68;" glyph-name="Assessment" data-tags="Kitaboo-Player-v6_Assessment_Assessment" d="M709.12 573.44h-161.28c-15.36 0-25.6-10.24-25.6-25.6s10.24-25.6 25.6-25.6h161.28c15.36 0 25.6 10.24 25.6 25.6s-12.8 25.6-25.6 25.6zM706.56 268.8h-161.28c-15.36 0-25.6-10.24-25.6-25.6s10.24-25.6 25.6-25.6h161.28c15.36 0 25.6 10.24 25.6 25.6s-12.8 25.6-25.6 25.6zM768 857.6h-51.2v25.6c0 15.36-10.24 25.6-25.6 25.6h-358.4c-15.36 0-25.6-10.24-25.6-25.6v-25.6h-51.2c-56.32 0-102.4-46.080-102.4-102.4v-665.6c0-56.32 46.080-102.4 102.4-102.4h512c56.32 0 102.4 46.080 102.4 102.4v665.6c0 56.32-46.080 102.4-102.4 102.4zM358.4 857.6h307.2v-51.2h-307.2v51.2zM819.2 89.6c0-28.16-23.040-51.2-51.2-51.2h-512c-28.16 0-51.2 23.040-51.2 51.2v665.6c0 28.16 23.040 51.2 51.2 51.2h51.2v-25.6c0-15.36 10.24-25.6 25.6-25.6h358.4c15.36 0 25.6 10.24 25.6 25.6v25.6h51.2c28.16 0 51.2-23.040 51.2-51.2v-665.6zM409.6 340.48h-133.12c-12.8 0-23.040-10.24-23.040-23.040v-133.12c0-12.8 10.24-23.040 23.040-23.040h133.12c12.8 0 23.040 10.24 23.040 23.040v133.12c0 12.8-10.24 23.040-23.040 23.040zM381.44 212.48h-76.8v76.8h76.8v-76.8zM404.48 609.28l-84.48-84.48-28.16 28.16c-10.24 10.24-25.6 10.24-35.84 0s-10.24-25.6 0-35.84l46.080-46.080c5.12-5.12 10.24-7.68 17.92-7.68s12.8 2.56 17.92 7.68l102.4 102.4c10.24 10.24 10.24 25.6 0 35.84s-25.6 10.24-35.84 0z" />
<glyph unicode="&#x69;" glyph-name="Audio-Volume" data-tags="Audio" d="M680.96 637.44c-12.8 7.68-28.16 5.12-35.84-7.68s-5.12-28.16 7.68-35.84c48.64-30.72 76.8-81.92 76.8-138.24 0-58.88-30.72-112.64-79.36-143.36-12.8-7.68-15.36-23.040-7.68-35.84 5.12-7.68 12.8-12.8 23.040-12.8 5.12 0 10.24 0 12.8 2.56 64 38.4 104.96 110.080 104.96 186.88-5.12 76.8-40.96 145.92-102.4 184.32zM806.4 775.68c-10.24 7.68-25.6 5.12-35.84-5.12-7.68-10.24-5.12-25.6 5.12-35.84 92.16-71.68 145.92-179.2 145.92-296.96 0-107.52-46.080-209.92-128-281.6-10.24-7.68-10.24-25.6-2.56-35.84 5.12-5.12 12.8-7.68 17.92-7.68s10.24 2.56 15.36 5.12c92.16 79.36 145.92 197.12 145.92 320 2.56 135.68-58.88 258.56-163.84 337.92zM512 903.68c-25.6 10.24-53.76 5.12-76.8-15.36l-204.8-209.92h-117.76c-33.28 0-61.44-28.16-61.44-64v-335.36c0-17.92 7.68-33.28 17.92-43.52 12.8-12.8 28.16-17.92 43.52-17.92 0 0 0 0 0 0h117.76l204.8-212.48c12.8-12.8 28.16-17.92 46.080-17.92 10.24 0 17.92 2.56 28.16 5.12 25.6 10.24 40.96 35.84 40.96 64v783.36c2.56 28.16-12.8 51.2-38.4 64zM209.92 268.8h-97.28c-5.12 0-7.68 2.56-7.68 2.56s-2.56 5.12-2.56 7.68v335.36c0 7.68 5.12 12.8 10.24 12.8h97.28v-358.4zM501.76 56.32c0-10.24-7.68-15.36-10.24-15.36-2.56-2.56-10.24-5.12-17.92 2.56l-209.92 217.6v373.76l209.92 217.6c5.12 7.68 12.8 5.12 17.92 2.56 2.56-2.56 10.24-5.12 10.24-15.36v-783.36z" />
<glyph unicode="&#x6a;" glyph-name="Video" data-tags="Video" d="M686.080 468.48l-240.64 153.6c-7.68 5.12-17.92 5.12-25.6 0s-12.8-12.8-12.8-23.040v-307.2c0-10.24 5.12-17.92 12.8-23.040 2.56-2.56 7.68-2.56 12.8-2.56s10.24 2.56 12.8 5.12l240.64 153.6c7.68 5.12 12.8 12.8 12.8 20.48-2.56 10.24-5.12 17.92-12.8 23.040zM844.8 908.8h-665.6c-71.68 0-128-56.32-128-128v-665.6c0-71.68 56.32-128 128-128h665.6c71.68 0 128 56.32 128 128v665.6c0 71.68-56.32 128-128 128zM921.6 115.2c0-43.52-33.28-76.8-76.8-76.8h-665.6c-43.52 0-76.8 33.28-76.8 76.8v665.6c0 43.52 33.28 76.8 76.8 76.8h665.6c43.52 0 76.8-33.28 76.8-76.8v-665.6z" />
<glyph unicode="&#x6b;" glyph-name="Image" data-tags="Image" d="M844.8 908.8h-665.6c-71.68 0-128-56.32-128-128v-665.6c0-71.68 56.32-128 128-128h665.6c71.68 0 128 56.32 128 128v665.6c0 71.68-56.32 128-128 128zM102.4 780.8c0 43.52 33.28 76.8 76.8 76.8h665.6c43.52 0 76.8-33.28 76.8-76.8v-440.32l-130.56 107.52c-10.24 7.68-23.040 7.68-33.28 0l-238.080-194.56-89.6 87.040c-10.24 10.24-25.6 10.24-35.84 0l-284.16-256c-5.12 10.24-7.68 20.48-7.68 30.72v665.6zM143.36 46.080l266.24 240.64 256-250.88h-486.4c-12.8 2.56-25.6 5.12-35.84 10.24zM844.8 38.4h-104.96c0 0 0 2.56-2.56 2.56l-181.76 176.64 217.6 176.64 148.48-120.32v-158.72c0-43.52-33.28-76.8-76.8-76.8zM348.16 460.8c38.4 0 69.12 12.8 97.28 40.96 25.6 25.6 40.96 58.88 40.96 97.28s-12.8 69.12-40.96 97.28c-25.6 25.6-58.88 40.96-97.28 40.96s-69.12-12.8-97.28-40.96c-25.6-25.6-40.96-58.88-40.96-97.28s12.8-69.12 40.96-97.28c28.16-28.16 58.88-40.96 97.28-40.96zM286.72 657.92c17.92 17.92 35.84 25.6 61.44 25.6s43.52-7.68 61.44-25.6c17.92-17.92 25.6-35.84 25.6-61.44 0-23.040-7.68-43.52-25.6-61.44s-35.84-25.6-61.44-25.6c-23.040 0-43.52 7.68-61.44 25.6s-25.6 35.84-25.6 61.44c2.56 25.6 10.24 46.080 25.6 61.44z" />
<glyph unicode="&#x6c;" glyph-name="Quiz" data-tags="Quiz" d="M586.24 524.8c-7.68 7.68-15.36 12.8-28.16 17.92-10.24 5.12-25.6 7.68-43.52 7.68-15.36 0-30.72-2.56-43.52-7.68s-23.040-10.24-30.72-17.92c-7.68-7.68-15.36-15.36-20.48-25.6s-7.68-17.92-7.68-28.16c0-2.56 0-5.12 2.56-7.68s2.56-2.56 5.12-2.56h40.96c2.56 0 5.12 0 7.68 2.56s2.56 2.56 5.12 5.12c2.56 10.24 7.68 17.92 12.8 23.040 7.68 5.12 15.36 7.68 25.6 7.68 5.12 0 10.24 0 15.36-2.56s10.24-5.12 12.8-10.24c2.56-5.12 5.12-10.24 2.56-15.36 0-5.12-2.56-10.24-5.12-15.36-5.12-5.12-7.68-10.24-15.36-15.36-5.12-5.12-10.24-10.24-17.92-17.92-5.12-5.12-10.24-12.8-15.36-20.48s-7.68-15.36-7.68-23.040c0-2.56 0-2.56 0-5.12s0-2.56 0-5.12 0-2.56 2.56-5.12 2.56-2.56 5.12-2.56h43.52c2.56 0 5.12 0 7.68 2.56s2.56 5.12 5.12 7.68c0 2.56 0 2.56 0 5.12s0 5.12 2.56 5.12c2.56 5.12 5.12 12.8 10.24 17.92s10.24 12.8 15.36 17.92c5.12 5.12 10.24 12.8 15.36 17.92s10.24 12.8 12.8 20.48c2.56 7.68 5.12 15.36 5.12 25.6 0 7.68 0 15.36-2.56 23.040-5.12 5.12-10.24 12.8-17.92 20.48zM532.48 343.040h-40.96c-2.56 0-5.12 0-7.68-2.56s-2.56-2.56-2.56-5.12v-35.84c0-2.56 0-5.12 2.56-7.68s5.12-2.56 7.68-2.56h40.96c2.56 0 5.12 0 5.12 2.56 2.56 2.56 2.56 5.12 2.56 7.68v35.84c0 2.56 0 5.12-2.56 5.12 0 0-2.56 2.56-5.12 2.56zM601.6 38.4h-184.32c-15.36 0-25.6-10.24-25.6-25.6s10.24-25.6 25.6-25.6h184.32c15.36 0 25.6 10.24 25.6 25.6s-10.24 25.6-25.6 25.6zM509.44 788.48c15.36 0 25.6 10.24 25.6 25.6v69.12c0 15.36-10.24 25.6-25.6 25.6s-25.6-10.24-25.6-25.6v-69.12c0-12.8 12.8-25.6 25.6-25.6zM852.48 762.88c-10.24 10.24-25.6 10.24-35.84 0l-48.64-48.64c-10.24-10.24-10.24-25.6 0-35.84 5.12-5.12 12.8-7.68 17.92-7.68s12.8 2.56 17.92 7.68l48.64 48.64c10.24 10.24 10.24 25.6 0 35.84zM256 714.24l-48.64 48.64c-10.24 10.24-25.6 10.24-35.84 0s-10.24-25.6 0-35.84l48.64-48.64c5.12-5.12 12.8-7.68 17.92-7.68s12.8 2.56 17.92 7.68c10.24 10.24 10.24 25.6 0 35.84zM650.24 683.52c-81.92 53.76-197.12 53.76-281.6 0-40.96-28.16-74.24-66.56-94.72-110.080-20.48-46.080-25.6-94.72-15.36-143.36 7.68-48.64 30.72-92.16 66.56-128 12.8-17.92 46.080-71.68 46.080-107.52v-23.040c0-38.4 33.28-71.68 71.68-71.68h135.68c38.4 0 71.68 33.28 71.68 71.68v23.040c0 35.84 30.72 87.040 46.080 107.52 33.28 35.84 56.32 79.36 66.56 128s2.56 97.28-15.36 143.36c-23.040 46.080-53.76 84.48-97.28 110.080zM711.68 440.32c-7.68-38.4-25.6-74.24-53.76-102.4l-2.56-2.56c-5.12-7.68-56.32-79.36-56.32-138.24v-23.040c0-10.24-10.24-20.48-20.48-20.48h-135.68c-10.24 0-20.48 10.24-20.48 20.48v23.040c0 58.88-51.2 130.56-56.32 138.24l-2.56 2.56c-28.16 28.16-46.080 64-53.76 102.4s-2.56 76.8 12.8 112.64c15.36 35.84 40.96 66.56 74.24 87.040s71.68 33.28 112.64 33.28c40.96 0 79.36-10.24 112.64-33.28 33.28-20.48 58.88-51.2 74.24-87.040 17.92-35.84 20.48-74.24 15.36-112.64z" />
<glyph unicode="&#x6d;" glyph-name="Bold" data-tags="Bold" d="M179.2-12.8c-10.24 0-17.92 2.56-23.040 10.24-5.12 5.12-7.68 12.8-7.68 23.040v855.040c0 10.24 2.56 17.92 7.68 23.040 7.68 7.68 15.36 10.24 23.040 10.24h376.32c69.12 0 128-10.24 171.52-30.72s76.8-51.2 99.84-89.6c20.48-38.4 33.28-84.48 33.28-135.68 0-33.28-5.12-61.44-17.92-84.48-10.24-25.6-25.6-43.52-40.96-61.44-15.36-15.36-33.28-28.16-48.64-35.84 33.28-15.36 61.44-40.96 87.040-79.36 25.6-35.84 38.4-79.36 38.4-130.56 0-56.32-12.8-102.4-35.84-145.92-23.040-40.96-58.88-74.24-104.96-97.28s-102.4-33.28-168.96-33.28h-389.12zM348.16 535.040h181.76c38.4 0 69.12 10.24 89.6 30.72s30.72 46.080 30.72 79.36c0 33.28-10.24 58.88-30.72 79.36s-48.64 30.72-89.6 30.72h-181.76v-220.16zM348.16 140.8h194.56c40.96 0 71.68 12.8 94.72 35.84 20.48 23.040 30.72 53.76 30.72 87.040s-10.24 64-33.28 87.040c-20.48 23.040-51.2 35.84-92.16 35.84h-194.56v-245.76z" />
<glyph unicode="&#x6e;" glyph-name="Weblink" data-tags="Kitaboo-Player-v6_Weblink" d="M307.2-12.8c-66.56 0-130.56 25.6-181.76 74.24-99.84 99.84-99.84 263.68 0 363.52l122.88 122.88c10.24 10.24 25.6 10.24 35.84 0s10.24-25.6 0-35.84l-122.88-122.88c-79.36-79.36-79.36-209.92 0-291.84 79.36-79.36 209.92-79.36 291.84 0l122.88 122.88c10.24 10.24 25.6 10.24 35.84 0s10.24-25.6 0-35.84l-122.88-122.88c-48.64-48.64-115.2-74.24-181.76-74.24zM348.16 258.56c-7.68 0-12.8 2.56-17.92 7.68-10.24 10.24-10.24 25.6 0 35.84l327.68 327.68c10.24 10.24 25.6 10.24 35.84 0s10.24-25.6 0-35.84l-327.68-327.68c-5.12-5.12-10.24-7.68-17.92-7.68zM757.76 340.48c-7.68 0-12.8 2.56-17.92 7.68-10.24 10.24-10.24 25.6 0 35.84l122.88 122.88c79.36 79.36 79.36 209.92 0 291.84-79.36 79.36-209.92 79.36-291.84 0l-122.88-122.88c-10.24-10.24-25.6-10.24-35.84 0s-10.24 25.6 0 35.84l122.88 122.88c99.84 99.84 263.68 99.84 363.52 0s99.84-263.68 0-363.52l-122.88-122.88c-5.12-5.12-12.8-7.68-17.92-7.68z" />
<glyph unicode="&#x6f;" glyph-name="Jump-to-Page" data-tags="Kitaboo-Player-v6_Jump-to-Page" d="M888.32 693.76l-204.8 207.36c-2.56 5.12-10.24 7.68-17.92 7.68h-424.96c-46.080 0-112.64-28.16-112.64-110.080v-701.44c0-61.44 51.2-110.080 112.64-110.080h542.72c87.040 0 112.64 69.12 112.64 110.080v578.56c0 7.68-2.56 12.8-7.68 17.92zM829.44 680.96h-99.84c-33.28 0-61.44 28.16-61.44 61.44v102.4l161.28-163.84zM783.36 38.4h-542.72c-33.28 0-61.44 25.6-61.44 58.88v701.44c0 56.32 51.2 58.88 61.44 58.88h378.88v-115.2c0-61.44 51.2-112.64 112.64-112.64h112.64v-532.48c0-23.040-7.68-58.88-61.44-58.88zM537.6 225.28l-64-64c-38.4-38.4-99.84-38.4-135.68 0s-38.4 99.84 0 135.68l64 64c10.24 10.24 10.24 25.6 0 35.84s-25.6 10.24-35.84 0l-64-64c-30.72-28.16-46.080-64-46.080-104.96 0-38.4 15.36-76.8 43.52-104.96s66.56-43.52 104.96-43.52 76.8 15.36 104.96 43.52l64 64c10.24 10.24 10.24 25.6 0 35.84s-25.6 12.8-35.84 2.56zM407.040 232.96c5.12-5.12 12.8-7.68 17.92-7.68s12.8 2.56 17.92 7.68l174.080 174.080c10.24 10.24 10.24 25.6 0 35.84s-25.6 10.24-35.84 0l-174.080-174.080c-10.24-10.24-10.24-25.6 0-35.84zM514.56 550.4l-64-64c-10.24-10.24-10.24-25.6 0-35.84s25.6-10.24 35.84 0l64 64c38.4 38.4 99.84 38.4 135.68 0 17.92-17.92 28.16-43.52 28.16-69.12s-10.24-51.2-28.16-69.12l-64-64c-10.24-10.24-10.24-25.6 0-35.84 5.12-5.12 12.8-7.68 17.92-7.68s12.8 2.56 17.92 7.68l64 64c28.16 28.16 43.52 64 43.52 104.96 0 38.4-15.36 76.8-43.52 104.96-53.76 56.32-148.48 56.32-207.36 0z" />
<glyph unicode="&#x70;" glyph-name="Bookmark" data-tags="Bookmark" d="M819.2-12.8c-7.68 0-12.8 2.56-17.92 7.68l-289.28 289.28-289.28-289.28c-7.68-7.68-17.92-10.24-28.16-5.12-10.24 2.56-15.36 12.8-15.36 23.040v870.4c0 15.36 10.24 25.6 25.6 25.6h614.4c15.36 0 25.6-10.24 25.6-25.6v-870.4c0-10.24-5.12-20.48-15.36-23.040-2.56-2.56-7.68-2.56-10.24-2.56zM512 345.6c7.68 0 12.8-2.56 17.92-7.68l263.68-263.68v783.36h-563.2v-783.36l263.68 263.68c5.12 5.12 10.24 7.68 17.92 7.68z" />
<glyph unicode="&#x71;" glyph-name="Bookmark-fil" data-tags="Bookmark fil" d="M819.2-12.8c-7.68 0-12.8 2.56-17.92 7.68l-289.28 289.28-289.28-289.28c-7.68-7.68-17.92-10.24-28.16-5.12-10.24 2.56-15.36 12.8-15.36 23.040v870.4c0 15.36 10.24 25.6 25.6 25.6h614.4c15.36 0 25.6-10.24 25.6-25.6v-870.4c0-10.24-5.12-20.48-15.36-23.040-2.56-2.56-7.68-2.56-10.24-2.56z" />
<glyph unicode="&#x73;" glyph-name="Download" data-tags="Download" d="M482.56 204.8c5.12-5.12 12.8-7.68 17.92-7.68s12.8 2.56 17.92 7.68l220.16 220.16c10.24 10.24 10.24 25.6 0 35.84s-25.6 10.24-35.84 0l-176.64-176.64v599.040c0 15.36-10.24 25.6-25.6 25.6s-25.6-10.24-25.6-25.6v-601.6l-179.2 179.2c-10.24 10.24-25.6 10.24-35.84 0s-10.24-25.6 0-35.84l222.72-220.16zM945.92 312.32c-15.36 0-25.6-10.24-25.6-25.6v-220.16c0-15.36-12.8-28.16-28.16-28.16h-762.88c-15.36 0-28.16 12.8-28.16 28.16v220.16c0 15.36-10.24 25.6-25.6 25.6s-25.6-10.24-25.6-25.6v-220.16c0-43.52 35.84-79.36 79.36-79.36h765.44c43.52 0 79.36 35.84 79.36 79.36v220.16c-2.56 12.8-12.8 25.6-28.16 25.6z" />
<glyph unicode="&#x74;" glyph-name="Pen" data-tags="Pen" d="M929.58 860.16c-28.16 30.72-66.56 48.64-110.080 48.64s-84.48-15.36-115.2-46.080l-604.16-591.36c-5.12-2.56-7.68-7.68-7.68-12.8l-40.96-240.64c-2.56-7.68 2.56-17.92 7.68-23.040s10.24-7.68 17.92-7.68c2.56 0 2.56 0 5.12 0l225.28 48.64c5.12 0 10.24 2.56 12.8 7.68l604.16 591.36c61.44 61.44 66.56 163.84 5.12 225.28zM289.58 84.48l-181.76-38.4 33.28 194.56 494.080 481.28c0-2.56 2.56-5.12 5.12-7.68l143.36-145.92-494.080-483.84zM888.62 670.72l-69.12-66.56-143.36 145.92c-2.56 2.56-5.12 5.12-7.68 5.12l71.68 69.12c20.48 23.040 48.64 33.28 79.36 33.28 28.16 0 53.76-12.8 74.24-30.72 40.96-43.52 38.4-112.64-5.12-156.16z" />
<glyph unicode="&#x75;" glyph-name="Contextual-Note" data-tags="Contextual-Note" d="M801.28 908.8h-578.56c-94.72 0-171.52-76.8-171.52-171.52v-581.12c0-92.16 76.8-168.96 171.52-168.96h407.040c40.96 0 81.92 17.92 112.64 46.080l199.68 199.68c20.48 20.48 33.28 51.2 33.28 79.36v424.96c-2.56 94.72-79.36 171.52-174.080 171.52zM222.72 857.6h581.12c64 0 117.76-53.76 117.76-120.32v-40.96h-819.2v40.96c0 66.56 53.76 120.32 120.32 120.32zM222.72 38.4c-66.56 0-120.32 53.76-120.32 120.32v488.96h819.2v-330.24c0 0 0 0 0 0h-168.96c-58.88 0-107.52-48.64-107.52-107.52v-166.4c-5.12-5.12-10.24-5.12-15.36-5.12h-407.040zM704 69.12c-2.56-2.56-5.12-5.12-7.68-7.68v143.36c0 30.72 25.6 56.32 56.32 56.32h145.92l-194.56-192zM762.88 460.8c0 15.36-10.24 25.6-25.6 25.6h-422.4c-15.36 0-25.6-10.24-25.6-25.6s10.24-25.6 25.6-25.6h422.4c12.8 0 25.6 12.8 25.6 25.6z" />
<glyph unicode="&#x76;" glyph-name="Contextual-Note_Add" data-tags="Kitaboo-Player-v6_Contextual-Note_Add" d="M716.8 499.2c-140.8 0-256-115.2-256-256s115.2-256 256-256 256 115.2 256 256c0 140.8-115.2 256-256 256zM716.8 38.4c-112.64 0-204.8 92.16-204.8 204.8s92.16 204.8 204.8 204.8 204.8-92.16 204.8-204.8-92.16-204.8-204.8-204.8zM814.080 263.68h-64v64c0 15.36-10.24 25.6-25.6 25.6s-25.6-10.24-25.6-25.6v-64h-64c-15.36 0-25.6-10.24-25.6-25.6s10.24-25.6 25.6-25.6h64v-64c0-15.36 10.24-25.6 25.6-25.6s25.6 10.24 25.6 25.6v64h64c15.36 0 25.6 10.24 25.6 25.6s-10.24 25.6-25.6 25.6zM442.88 519.68h-140.8c-15.36 0-25.6-10.24-25.6-25.6s10.24-25.6 25.6-25.6h140.8c15.36 0 25.6 10.24 25.6 25.6s-12.8 25.6-25.6 25.6zM399.36 115.2h-189.44c-58.88 0-107.52 48.64-107.52 107.52v440.32h742.4v-94.72c0-15.36 10.24-25.6 25.6-25.6s25.6 10.24 25.6 25.6v181.76c0 87.040-71.68 158.72-158.72 158.72h-527.36c-87.040 0-158.72-71.68-158.72-158.72v-529.92c0-84.48 71.68-156.16 158.72-156.16h192c15.36 0 25.6 10.24 25.6 25.6s-12.8 25.6-28.16 25.6zM209.92 857.6h529.92c56.32 0 104.96-48.64 104.96-107.52v-35.84h-742.4v35.84c0 58.88 48.64 107.52 107.52 107.52z" />
<glyph unicode="&#x78;" glyph-name="Zoom-in" data-tags="Zoom in" d="M965.12 28.16l-243.2 243.2c58.88 66.56 97.28 156.16 97.28 253.44 0 212.48-171.52 384-384 384s-384-171.52-384-384c0-212.48 171.52-384 384-384 97.28 0 186.88 35.84 253.44 97.28l243.2-243.2c5.12-5.12 10.24-7.68 17.92-7.68s12.8 2.56 17.92 7.68c7.68 7.68 7.68 23.040-2.56 33.28zM435.2 192c-184.32 0-332.8 148.48-332.8 332.8s148.48 332.8 332.8 332.8 332.8-148.48 332.8-332.8-148.48-332.8-332.8-332.8zM614.4 542.72h-143.36v143.36c0 15.36-10.24 25.6-25.6 25.6s-25.6-10.24-25.6-25.6v-143.36h-143.36c-15.36 0-25.6-10.24-25.6-25.6s10.24-25.6 25.6-25.6h143.36v-143.36c0-15.36 10.24-25.6 25.6-25.6s25.6 10.24 25.6 25.6v143.36h143.36c15.36 0 25.6 10.24 25.6 25.6s-12.8 25.6-25.6 25.6z" />
<glyph unicode="&#x79;" glyph-name="Zoom-out" data-tags="Zoom out" d="M614.223 542.72h-337.92c-15.36 0-25.6-10.24-25.6-25.6s10.24-25.6 25.6-25.6h337.92c15.36 0 25.6 10.24 25.6 25.6s-12.8 25.6-25.6 25.6zM964.943 28.16l-243.2 243.2c58.88 66.56 97.28 156.16 97.28 253.44 0 212.48-171.52 384-384 384s-384-171.52-384-384c0-212.48 171.52-384 384-384 97.28 0 186.88 35.84 253.44 97.28l243.2-243.2c5.12-5.12 10.24-7.68 17.92-7.68s12.8 2.56 17.92 7.68c7.68 7.68 7.68 23.040-2.56 33.28zM435.023 192c-184.32 0-332.8 148.48-332.8 332.8s148.48 332.8 332.8 332.8 332.8-148.48 332.8-332.8-148.48-332.8-332.8-332.8z" />
<glyph unicode="&#xa2;" glyph-name="Fit-to-height" data-tags="Fit to height" d="M76.8 857.6h870.4c15.36 0 25.6 10.24 25.6 25.6s-10.24 25.6-25.6 25.6h-870.4c-15.36 0-25.6-10.24-25.6-25.6s10.24-25.6 25.6-25.6zM652.8 576c5.12-5.12 12.8-7.68 17.92-7.68s12.8 2.56 17.92 7.68c10.24 10.24 10.24 25.6 0 35.84l-158.72 158.72c-10.24 10.24-25.6 10.24-35.84 0l-158.72-158.72c-10.24-10.24-10.24-25.6 0-35.84s25.6-10.24 35.84 0l115.2 115.2v-483.84l-115.2 112.64c-10.24 10.24-25.6 10.24-35.84 0s-10.24-25.6 0-35.84l158.72-158.72c5.12-5.12 12.8-7.68 17.92-7.68s12.8 2.56 17.92 7.68l158.72 158.72c10.24 10.24 10.24 25.6 0 35.84s-25.6 10.24-35.84 0l-115.2-112.64v481.28l115.2-112.64zM947.2 38.4h-870.4c-15.36 0-25.6-10.24-25.6-25.6s10.24-25.6 25.6-25.6h870.4c15.36 0 25.6 10.24 25.6 25.6s-10.24 25.6-25.6 25.6z" />
<glyph unicode="&#xa3;" glyph-name="Font-Text" data-tags="Kitaboo-Player-v6_Font-Text" d="M66.56 166.4c-5.12 0-7.68 2.56-10.24 5.12s-5.12 7.68-5.12 12.8c0 2.56 0 5.12 0 10.24l202.24 524.8c2.56 5.12 5.12 10.24 10.24 12.8 2.56 2.56 10.24 5.12 17.92 5.12h56.32c7.68 0 12.8-2.56 17.92-5.12 0-2.56 2.56-7.68 5.12-12.8l202.24-527.36c0-2.56 2.56-5.12 2.56-10.24s-2.56-7.68-5.12-10.24-7.68-5.12-12.8-5.12h-40.96c-7.68 0-10.24 2.56-15.36 5.12-2.56 2.56-5.12 5.12-5.12 7.68l-43.52 115.2h-268.8l-43.52-115.2c0-2.56-2.56-5.12-5.12-7.68-5.12-2.56-10.24-5.12-15.36-5.12h-43.52zM197.12 366.080h220.16l-110.080 289.28-110.080-289.28zM757.76 158.72c-28.16 0-51.2 5.12-74.24 15.36s-40.96 25.6-53.76 43.52c-12.8 17.92-20.48 38.4-20.48 61.44 0 38.4 15.36 66.56 46.080 89.6s69.12 35.84 117.76 43.52l120.32 17.92v23.040c0 25.6-7.68 46.080-23.040 61.44s-38.4 23.040-71.68 23.040c-25.6 0-43.52-5.12-58.88-15.36s-25.6-23.040-30.72-38.4c-2.56-7.68-10.24-12.8-17.92-12.8h-35.84c-5.12 0-10.24 2.56-12.8 5.12-2.56 7.68-2.56 12.8-2.56 15.36 0 7.68 2.56 17.92 10.24 30.72 5.12 12.8 15.36 23.040 28.16 35.84 12.8 10.24 30.72 20.48 51.2 28.16s46.080 12.8 74.24 12.8c33.28 0 58.88-5.12 81.92-12.8s40.96-20.48 53.76-33.28c12.8-15.36 23.040-30.72 28.16-48.64s7.68-35.84 7.68-53.76v-263.68c0-5.12-2.56-10.24-5.12-12.8s-7.68-5.12-12.8-5.12h-38.4c-5.12 0-10.24 2.56-12.8 5.12s-5.12 7.68-5.12 12.8v35.84c-7.68-10.24-15.36-20.48-28.16-28.16-12.8-10.24-28.16-17.92-43.52-23.040-23.040-10.24-43.52-12.8-71.68-12.8zM775.68 220.16c23.040 0 43.52 5.12 61.44 15.36s33.28 23.040 43.52 43.52c10.24 20.48 15.36 46.080 15.36 76.8v23.040l-94.72-12.8c-38.4-5.12-66.56-15.36-87.040-28.16s-28.16-28.16-28.16-48.64c0-15.36 5.12-28.16 12.8-38.4s20.48-17.92 33.28-23.040c15.36-5.12 28.16-7.68 43.52-7.68z" />
<glyph unicode="&#xa4;" glyph-name="Send" data-tags="Kitaboo-Player-v6_Send" d="M166.4-12.8c-12.8 0-23.040 2.56-35.84 5.12-56.32 20.48-87.040 87.040-69.12 148.48l92.16 307.2-99.84 325.12c-2.56 10.24-2.56 17.92-2.56 25.6 2.56 40.96 25.6 76.8 58.88 94.72s71.68 17.92 104.96 2.56l706.56-363.52c30.72-15.36 51.2-48.64 51.2-87.040s-20.48-69.12-51.2-87.040l-704-358.4c-15.36-7.68-33.28-12.8-51.2-12.8zM166.4 857.6c-10.24 0-20.48-2.56-30.72-7.68-17.92-10.24-30.72-30.72-33.28-53.76 0 0 0-2.56 0-5.12l102.4-332.8c2.56-5.12 2.56-10.24 0-15.36l-94.72-314.88c-10.24-35.84 5.12-74.24 35.84-84.48 10.24-2.56 28.16-5.12 46.080 2.56l704 360.96c15.36 7.68 23.040 23.040 23.040 40.96s-7.68 33.28-23.040 40.96l-704 360.96c-7.68 5.12-17.92 7.68-25.6 7.68zM529.92 422.4h-320c-15.36 0-25.6 10.24-25.6 25.6s10.24 25.6 25.6 25.6h320c15.36 0 25.6-10.24 25.6-25.6s-12.8-25.6-25.6-25.6z" />
<glyph unicode="&#xa6;" glyph-name="Analytics_Session_Reading" data-tags="Reading" d="M435.2 263.68h-337.92c10.24 145.92 133.12 261.12 284.16 261.12 53.76 0 99.84-10.24 138.24-30.72 10.24-5.12 25.6-2.56 30.72 10.24 5.12 10.24 2.56 25.6-10.24 30.72-17.92 10.24-35.84 15.36-56.32 20.48 53.76 33.28 89.6 94.72 89.6 161.28 0 104.96-87.040 192-192 192s-192-87.040-192-192c0-69.12 35.84-130.56 92.16-163.84-133.12-40.96-230.4-166.4-230.4-312.32 0-12.8 10.24-23.040 23.040-23.040h360.96c12.8 0 23.040 10.24 23.040 23.040s-10.24 23.040-23.040 23.040zM232.96 716.8c0 81.92 66.56 148.48 148.48 148.48s145.92-66.56 145.92-148.48c0-81.92-66.56-148.48-145.92-148.48-81.92 2.56-148.48 66.56-148.48 148.48zM814.080 430.080v56.32h20.48c10.24 0 20.48 7.68 20.48 20.48s-10.24 17.92-20.48 17.92h-176.64c-10.24 0-20.48-7.68-20.48-20.48s7.68-20.48 20.48-20.48h20.48v-56.32c-92.16-28.16-158.72-115.2-158.72-215.040 0-125.44 102.4-227.84 227.84-227.84s227.84 102.4 227.84 227.84c-2.56 102.4-69.12 189.44-161.28 217.6zM716.8 486.4h58.88v-46.080c-10.24 0-17.92 2.56-28.16 2.56s-20.48 0-30.72-2.56v46.080zM744.96 25.6c-102.4 0-186.88 84.48-186.88 186.88s84.48 186.88 186.88 186.88c102.4 0 186.88-84.48 186.88-186.88 2.56-102.4-81.92-186.88-186.88-186.88zM839.68 232.96h-74.24v66.56c0 10.24-7.68 20.48-20.48 20.48s-20.48-7.68-20.48-20.48v-87.040c0-10.24 7.68-20.48 20.48-20.48h92.16c0 0 0 0 0 0 10.24 0 20.48 7.68 20.48 20.48 2.56 12.8-7.68 20.48-17.92 20.48z" />
<glyph unicode="&#xa8;" glyph-name="Analytics_Reading-Time" data-tags="Reading-Time" d="M463.36 38.4h-286.72c-40.96 0-74.24 33.28-74.24 74.24v670.72c0 40.96 33.28 74.24 74.24 74.24h478.72c40.96 0 74.24-33.28 74.24-74.24v-232.96c0-15.36 10.24-25.6 25.6-25.6s25.6 10.24 25.6 25.6v232.96c0 69.12-56.32 125.44-125.44 125.44h-478.72c-69.12 0-125.44-56.32-125.44-125.44v-670.72c0-69.12 56.32-125.44 125.44-125.44h286.72c15.36 0 25.6 10.24 25.6 25.6s-10.24 25.6-25.6 25.6zM204.8 683.52c-15.36 0-25.6-10.24-25.6-25.6s10.24-25.6 25.6-25.6h409.6c15.36 0 25.6 10.24 25.6 25.6s-10.24 25.6-25.6 25.6h-409.6zM488.96 476.16h-284.16c-15.36 0-25.6-10.24-25.6-25.6s10.24-25.6 25.6-25.6h284.16c15.36 0 25.6 10.24 25.6 25.6s-10.24 25.6-25.6 25.6zM409.6 212.48c15.36 0 25.6 10.24 25.6 25.6s-10.24 25.6-25.6 25.6h-204.8c-15.36 0-25.6-10.24-25.6-25.6s10.24-25.6 25.6-25.6h204.8zM742.4 448c-128 0-230.4-102.4-230.4-230.4s102.4-230.4 230.4-230.4 230.4 102.4 230.4 230.4c0 128-102.4 230.4-230.4 230.4zM742.4 38.4c-99.84 0-179.2 79.36-179.2 179.2s79.36 179.2 179.2 179.2 179.2-79.36 179.2-179.2-79.36-179.2-179.2-179.2zM849.92 243.2h-81.92v69.12c0 15.36-10.24 25.6-25.6 25.6s-25.6-10.24-25.6-25.6v-94.72c0-15.36 10.24-25.6 25.6-25.6h107.52c0 0 0 0 0 0 15.36 0 25.6 10.24 25.6 25.6 0 12.8-10.24 25.6-25.6 25.6z" />
<glyph unicode="&#xa9;" glyph-name="Preview" data-tags="Preview" d="M512 560.64c-61.44 0-112.64-51.2-112.64-112.64s51.2-112.64 112.64-112.64c61.44 0 112.64 51.2 112.64 112.64s-51.2 112.64-112.64 112.64zM512 386.56c-33.28 0-61.44 28.16-61.44 61.44s28.16 61.44 61.44 61.44 61.44-28.16 61.44-61.44c0-33.28-28.16-61.44-61.44-61.44zM972.8 442.88c0 2.56 0 2.56 0 5.12s0 2.56 0 5.12 0 2.56 0 5.12-2.56 2.56-2.56 5.12c0 0 0 2.56-2.56 2.56-153.6 166.4-314.88 245.76-483.84 238.080-189.44-10.24-343.040-130.56-424.96-240.64 0 0 0 0 0-2.56s-2.56-2.56-2.56-5.12c0-2.56 0-2.56-2.56-5.12 0-2.56 0-2.56 0-5.12s0-2.56 0-5.12 0-2.56 2.56-5.12c0-2.56 2.56-2.56 2.56-5.12 0 0 0 0 0-2.56 81.92-110.080 238.080-230.4 424.96-240.64 7.68 0 15.36 0 23.040 0 161.28 0 314.88 79.36 460.8 238.080 0 0 2.56 2.56 2.56 2.56 0 2.56 2.56 2.56 2.56 5.12 0 7.68 0 7.68 0 10.24zM512 256c-104.96 0-192 87.040-192 192s87.040 192 192 192c104.96 0 192-87.040 192-192s-87.040-192-192-192zM110.080 448c53.76 66.56 133.12 133.12 230.4 171.52-43.52-43.52-71.68-104.96-71.68-171.52s28.16-128 71.68-171.52c-97.28 38.4-179.2 104.96-230.4 171.52zM691.2 284.16c38.4 43.52 64 99.84 64 163.84s-23.040 120.32-64 163.84c74.24-33.28 148.48-87.040 220.16-163.84-71.68-74.24-143.36-128-220.16-163.84z" />
<glyph unicode="&#xaa;" glyph-name="Analytics_Page-Read" data-tags="Page-Read" d="M437.76 33.28h-74.24c-61.44 0-112.64 48.64-112.64 110.080v609.28c0 107.52 99.84 110.080 112.64 110.080h230.4v-125.44c0-58.88 48.64-107.52 107.52-107.52h125.44v-266.24c0-12.8 10.24-23.040 23.040-23.040s23.040 10.24 23.040 23.040v299.52c0 5.12-2.56 10.24-5.12 15.36-51.2 53.76-79.36 84.48-104.96 112.64s-53.76 58.88-104.96 112.64c-7.68 2.56-15.36 5.12-20.48 5.12h-276.48c-53.76 0-156.16-33.28-156.16-156.16v-611.84c0-84.48 71.68-156.16 156.16-156.16h74.24c12.8 0 23.040 10.24 23.040 23.040 0 15.36-10.24 25.6-20.48 25.6zM727.040 757.76c20.48-23.040 43.52-46.080 76.8-84.48h-104.96c-33.28 0-61.44 28.16-61.44 61.44v120.32c40.96-46.080 66.56-71.68 89.6-97.28zM176.64 862.72c12.8 0 23.040 10.24 23.040 23.040s-10.24 23.040-23.040 23.040c-69.12 0-125.44-56.32-125.44-125.44v-670.72c0-69.12 56.32-125.44 125.44-125.44 12.8 0 23.040 10.24 23.040 23.040s-10.24 23.040-23.040 23.040c-43.52 0-79.36 35.84-79.36 79.36v670.72c0 43.52 35.84 79.36 79.36 79.36zM696.32 555.52c0 12.8-10.24 23.040-23.040 23.040h-307.2c-12.8 0-23.040-10.24-23.040-23.040s10.24-23.040 23.040-23.040h307.2c12.8 0 23.040 10.24 23.040 23.040zM366.080 422.4c-12.8 0-23.040-10.24-23.040-23.040s10.24-23.040 23.040-23.040h153.6c12.8 0 23.040 10.24 23.040 23.040s-10.24 23.040-23.040 23.040h-153.6zM691.2 217.6c-38.4 0-71.68-33.28-71.68-71.68s33.28-71.68 71.68-71.68 71.68 33.28 71.68 71.68c0 38.4-33.28 71.68-71.68 71.68zM691.2 112.64c-17.92 0-33.28 15.36-33.28 33.28s15.36 33.28 33.28 33.28 33.28-15.36 33.28-33.28-15.36-33.28-33.28-33.28zM972.8 148.48c0 0 0 2.56 0 2.56s-2.56 2.56-2.56 2.56c0 0 0 2.56-2.56 2.56-92.16 102.4-192 151.040-294.4 145.92-115.2-5.12-209.92-79.36-258.56-145.92 0 0 0 0 0 0s0-2.56-2.56-2.56c0 0 0-2.56 0-2.56s0-2.56 0-2.56c0 0 0-2.56 0-2.56s0-2.56 0-2.56 0-2.56 2.56-2.56c0 0 0 0 0 0 51.2-66.56 145.92-140.8 258.56-145.92 5.12 0 10.24 0 15.36 0 97.28 0 192 48.64 281.6 145.92 0 0 0 2.56 2.56 2.56 0 0 2.56 2.56 2.56 2.56s0 2.56 0 2.56c0 0 0 2.56 0 2.56-2.56-5.12-2.56-2.56-2.56-2.56zM453.12 145.92c28.16 35.84 69.12 69.12 117.76 92.16-20.48-25.6-33.28-58.88-33.28-92.16 0-35.84 12.8-66.56 33.28-92.16-48.64 23.040-87.040 56.32-117.76 92.16zM691.2 33.28c-61.44 0-112.64 51.2-112.64 112.64s51.2 112.64 112.64 112.64 112.64-51.2 112.64-112.64-51.2-112.64-112.64-112.64zM814.080 58.88c17.92 25.6 28.16 53.76 28.16 87.040s-10.24 61.44-28.16 87.040c38.4-20.48 76.8-48.64 112.64-87.040-35.84-38.4-74.24-66.56-112.64-87.040z" />
<glyph unicode="&#xab;" glyph-name="Colour-Corner-arrow" data-tags="Colour-Corner-arrow" d="M768 550.4c0 197.12-161.28 358.4-358.4 358.4s-358.4-161.28-358.4-358.4 161.28-358.4 358.4-358.4 358.4 161.28 358.4 358.4zM409.6 243.2c-168.96 0-307.2 138.24-307.2 307.2s138.24 307.2 307.2 307.2 307.2-138.24 307.2-307.2-138.24-307.2-307.2-307.2zM601.6-12.8h371.2v373.76z" />
<glyph unicode="&#xaf;" glyph-name="A-Minus" data-tags="A" d="M596.5 308.5c-2.5 0-4.7 0.9-6.7 2.8-2 1.8-3 4.2-3 6.9 0 1.2 0.3 2.6 0.9 4.2l111.3 297.9c0.9 3.1 2.7 5.8 5.3 8.1s6.2 3.5 10.9 3.5h50.3c4.6 0 8.2-1.2 10.6-3.5 2.5-2.3 4.3-5 5.5-8.1l111.4-298c0.3-1.5 0.5-2.9 0.5-4.2 0-2.8-0.9-5.1-2.8-6.9-1.8-1.8-4-2.8-6.5-2.8h-40.2c-4.3 0-7.5 1-9.5 3s-3.3 3.9-3.9 5.8l-21.6 56.4h-137.2l-21.7-56.3c-0.6-1.8-1.9-3.8-3.9-5.8s-5.2-3-9.5-3h-40.2zM688 426.7h104.8l-52.7 142.7-52.1-142.7zM183.3 431.6c-5 0-8.9 1.6-11.8 4.7s-4.4 7-4.4 11.5v44.6c0 4.5 1.5 8.3 4.4 11.5 2.9 3.1 6.9 4.7 11.8 4.7h277.6c4.5 0 8.3-1.6 11.5-4.7 3.1-3.2 4.7-7 4.7-11.5v-44.6c0-4.5-1.6-8.3-4.7-11.5-3.2-3.2-7-4.7-11.5-4.7h-277.6z" />
<glyph unicode="&#xb1;" glyph-name="A-Plus" data-tags="A+" d="M221.6 272.2c-4.5 0-8.3 1.6-11.5 4.7s-4.7 7-4.7 11.5v131.9h-129.9c-4.5 0-8.3 1.6-11.5 4.7s-4.7 7.2-4.7 12.2v35.2c0 5 1.6 8.9 4.7 11.8s7 4.4 11.5 4.4h129.9v128.5c0 4.5 1.6 8.3 4.7 11.5 3.1 3.1 7 4.7 11.5 4.7h39.2c5 0 8.9-1.6 11.8-4.7 2.9-3.2 4.4-7 4.4-11.5v-128.5h129.9c4.5 0 8.3-1.5 11.5-4.4 3.1-2.9 4.7-6.9 4.7-11.8v-35.2c0-5-1.6-9-4.7-12.2-3.2-3.2-7-4.7-11.5-4.7h-129.8v-131.9c0-4.5-1.5-8.3-4.4-11.5s-6.9-4.7-11.8-4.7h-39.3zM529.8 249.8c-3.6 0-6.9 1.4-9.8 4.1s-4.4 6.1-4.4 10.1c0 1.8 0.4 3.8 1.4 6.1l163 436.2c1.4 4.5 3.9 8.5 7.8 11.8 3.8 3.4 9.1 5.1 15.9 5.1h73.7c6.8 0 11.9-1.7 15.6-5.1 3.6-3.4 6.3-7.3 8.1-11.8l163-436.2c0.4-2.3 0.7-4.3 0.7-6.1 0-4.1-1.4-7.4-4.1-10.1s-5.9-4.1-9.5-4.1h-58.8c-6.3 0-10.9 1.5-13.9 4.4-2.9 2.9-4.9 5.7-5.7 8.5l-31.8 82.5h-200.9l-31.8-82.5c-0.9-2.7-2.8-5.5-5.7-8.5-2.9-2.9-7.6-4.4-13.9-4.4h-58.9zM663.7 423h153.5l-77.1 209-76.4-209z" />
<glyph unicode="&#xb5;" glyph-name="Lock-open" data-tags="Lock open" d="M788.48 550.4h-483.84v115.2c0 104.96 92.16 192 207.36 192s207.36-87.040 207.36-192c0-15.36 10.24-25.6 25.6-25.6s25.6 10.24 25.6 25.6c0 133.12-115.2 243.2-258.56 243.2s-258.56-110.080-258.56-243.2v-115.2h-17.92c-46.080 0-81.92-35.84-81.92-79.36v-404.48c0-43.52 35.84-79.36 81.92-79.36h555.52c43.52 0 81.92 35.84 81.92 79.36v404.48c-2.56 43.52-38.4 79.36-84.48 79.36zM512 212.48c-35.84 0-64 28.16-64 64s28.16 64 64 64 64-28.16 64-64-28.16-64-64-64zM819.2 66.56c0-15.36-12.8-28.16-30.72-28.16h-250.88v125.44c51.2 12.8 89.6 56.32 89.6 112.64 0 64-51.2 115.2-115.2 115.2s-115.2-51.2-115.2-115.2c0-53.76 38.4-99.84 89.6-112.64v-125.44h-250.88c-17.92 0-30.72 12.8-30.72 28.16v404.48c0 15.36 12.8 28.16 30.72 28.16h555.52c15.36 0 30.72-12.8 30.72-28.16v-404.48z" />
<glyph unicode="&#xb6;" glyph-name="Lock" data-tags="Lock" d="M788.48 550.4h-17.92v115.2c0 133.12-115.2 243.2-258.56 243.2s-258.56-110.080-258.56-243.2v-115.2h-17.92c-46.080 0-81.92-35.84-81.92-79.36v-404.48c0-43.52 35.84-79.36 81.92-79.36h555.52c43.52 0 81.92 35.84 81.92 79.36v404.48c-2.56 43.52-38.4 79.36-84.48 79.36zM304.64 665.6c0 104.96 92.16 192 207.36 192s207.36-87.040 207.36-192v-115.2h-414.72v115.2zM512 212.48c-35.84 0-64 28.16-64 64s28.16 64 64 64 64-28.16 64-64-28.16-64-64-64zM819.2 66.56c0-15.36-12.8-28.16-30.72-28.16h-250.88v125.44c51.2 12.8 89.6 56.32 89.6 112.64 0 64-51.2 115.2-115.2 115.2s-115.2-51.2-115.2-115.2c0-53.76 38.4-99.84 89.6-112.64v-125.44h-250.88c-17.92 0-30.72 12.8-30.72 28.16v404.48c0 15.36 12.8 28.16 30.72 28.16h555.52c15.36 0 30.72-12.8 30.72-28.16v-404.48z" />
<glyph unicode="&#xb8;" glyph-name="Sticky-Note" data-tags="Kitaboo-Player-v6_Sticky-Note" d="M801.28 908.8h-578.56c-94.72 0-171.52-76.8-171.52-171.52v-581.12c0-92.16 76.8-168.96 171.52-168.96h407.040c40.96 0 81.92 17.92 112.64 46.080l199.68 199.68c20.48 20.48 33.28 51.2 33.28 79.36v424.96c-2.56 94.72-79.36 171.52-174.080 171.52zM222.72 38.4c-66.56 0-120.32 53.76-120.32 120.32v578.56c0 66.56 53.76 120.32 120.32 120.32h581.12c64 0 117.76-53.76 117.76-120.32v-409.6c0 0 0 0 0 0h-176.64c-61.44 0-112.64-51.2-112.64-112.64v-176.64c0 0 0 0 0 0s-2.56 0-2.56 0h-407.040zM704 69.12c-5.12-5.12-12.8-12.8-20.48-15.36v163.84c0 33.28 28.16 61.44 61.44 61.44h166.4c-2.56-2.56-5.12-5.12-7.68-7.68l-199.68-202.24zM302.080 647.68h422.4c15.36 0 25.6 10.24 25.6 25.6s-10.24 25.6-25.6 25.6h-422.4c-15.36 0-25.6-10.24-25.6-25.6s10.24-25.6 25.6-25.6zM747.52 486.4c0 15.36-10.24 25.6-25.6 25.6h-419.84c-15.36 0-25.6-10.24-25.6-25.6s10.24-25.6 25.6-25.6h422.4c12.8 0 23.040 12.8 23.040 25.6z" />
<glyph unicode="&#xbb;" glyph-name="Corner-arrow_Right" data-tags="Kitaboo-Player_Corner-arrow_Right" d="M51.2-12.8h921.6v921.6z" />
<glyph unicode="&#xc2;" glyph-name="Preview-off" data-tags="Preview off" d="M145.92 849.92c-10.24 10.24-25.6 10.24-35.84 0s-10.24-25.6 0-35.84l166.4-166.4c-94.72-46.080-171.52-117.76-220.16-184.32 0 0 0 0 0-2.56s-2.56-2.56-2.56-5.12c0-2.56 0-2.56-2.56-5.12 0-2.56 0-2.56 0-5.12s0-2.56 0-5.12 0-2.56 2.56-5.12c0-2.56 2.56-2.56 2.56-5.12 0 0 0 0 0-2.56 81.92-110.080 238.080-230.4 424.96-240.64 7.68 0 15.36 0 23.040 0 64 0 125.44 12.8 186.88 38.4l184.32-184.32c5.12-5.12 12.8-7.68 17.92-7.68s12.8 2.56 17.92 7.68c10.24 10.24 10.24 25.6 0 35.84l-765.44 773.12zM455.68 468.48l79.36-79.36c-7.68-2.56-12.8-5.12-20.48-5.12-33.28 0-61.44 28.16-61.44 61.44-2.56 10.24 0 17.92 2.56 23.040zM110.080 448c48.64 58.88 120.32 120.32 204.8 161.28l7.68-7.68c-33.28-40.96-53.76-94.72-53.76-153.6 0-66.56 28.16-128 71.68-171.52-97.28 38.4-179.2 104.96-230.4 171.52zM512 256c-104.96 0-192 87.040-192 192 0 43.52 15.36 84.48 40.96 115.2l56.32-56.32c-10.24-17.92-17.92-35.84-17.92-58.88 0-61.44 51.2-112.64 112.64-112.64 23.040 0 40.96 7.68 58.88 17.92l56.32-56.32c-30.72-25.6-71.68-40.96-115.2-40.96zM972.8 453.12c0 2.56 0 2.56 0 5.12s-2.56 2.56-2.56 5.12c0 0 0 2.56-2.56 2.56-153.6 166.4-314.88 245.76-483.84 238.080-33.28-2.56-64-7.68-92.16-15.36l61.44-61.44c20.48 7.68 40.96 10.24 61.44 10.24 104.96 0 192-87.040 192-192 0-23.040-5.12-43.52-10.24-64l38.4-38.4c15.36 30.72 23.040 66.56 23.040 102.4 0 64-23.040 120.32-64 163.84 74.24-33.28 148.48-87.040 220.16-163.84-51.2-53.76-102.4-94.72-153.6-128l38.4-38.4c58.88 38.4 115.2 87.040 171.52 148.48 0 0 2.56 2.56 2.56 2.56 0 2.56 2.56 2.56 2.56 5.12s0 2.56 0 5.12 0 2.56 0 5.12-2.56 5.12-2.56 7.68zM519.68 560.64l104.96-104.96c-5.12 56.32-48.64 99.84-104.96 104.96z" />
<glyph unicode="&#xc3;" glyph-name="Image-Slideshow" data-tags="Kitaboo-Player-v6_Image-Slideshow" d="M906.24 755.2h-87.040v58.88c0 51.2-43.52 94.72-94.72 94.72h-424.96c-51.2 0-94.72-43.52-94.72-94.72v-58.88h-87.040c-38.4 0-66.56-35.84-66.56-79.36v-460.8c0-43.52 28.16-76.8 66.56-76.8h87.040v-58.88c0-51.2 43.52-94.72 94.72-94.72h424.96c51.2 0 94.72 43.52 94.72 94.72v61.44h87.040c35.84 0 66.56 35.84 66.56 76.8v460.8c0 40.96-28.16 76.8-66.56 76.8zM117.76 192c-5.12 0-15.36 10.24-15.36 25.6v460.8c0 15.36 10.24 25.6 15.36 25.6h84.48c0-58.88 0-156.16 0-256 0-76.8 0-153.6 0-212.48 2.56-17.92 2.56-30.72 2.56-43.52h-87.040zM768 81.92c0-23.040-20.48-43.52-43.52-43.52h-424.96c-23.040 0-43.52 20.48-43.52 43.52v58.88c0 0 0 5.12 0 15.36v657.92c0 23.040 20.48 43.52 43.52 43.52h424.96c23.040 0 43.52-20.48 43.52-43.52v-657.92c0-7.68 0-15.36 0-15.36v0-58.88zM921.6 217.6c0-15.36-10.24-25.6-15.36-25.6h-87.040c0 12.8 0 28.16 0 46.080 0 58.88 0 135.68 0 212.48 0 99.84 0 197.12 0 256h84.48c5.12 0 15.36-10.24 15.36-25.6v-463.36z" />
<glyph unicode="&#xc4;" glyph-name="Corner-arrow_Left" data-tags="Corner-arrow_Left" d="M972.8-12.8h-921.6v921.6z" />
<glyph unicode="&#xc6;" glyph-name="Both-icon" data-tags="Both icon" d="M551.7 957h-548.7v-1018h1018v1018h-469.3zM60-10.5v917h412.3v-916.9h-412.3zM964-10.5h-412.3v917h412.3v-917z" />
<glyph unicode="&#xc7;" glyph-name="fit-to-width" data-tags="fit to width" d="M76.8 908.8c-15.36 0-25.6-10.24-25.6-25.6v-870.4c0-15.36 10.24-25.6 25.6-25.6s25.6 10.24 25.6 25.6v870.4c0 15.36-10.24 25.6-25.6 25.6zM947.2 908.8c-15.36 0-25.6-10.24-25.6-25.6v-870.4c0-15.36 10.24-25.6 25.6-25.6s25.6 10.24 25.6 25.6v870.4c0 15.36-10.24 25.6-25.6 25.6zM675.84 624.64c-10.24 10.24-25.6 10.24-35.84 0s-10.24-25.6 0-35.84l115.2-115.2h-483.84l115.2 115.2c10.24 10.24 10.24 25.6 0 35.84s-25.6 10.24-35.84 0l-158.72-158.72c-10.24-10.24-10.24-25.6 0-35.84l158.72-158.72c5.12-5.12 12.8-7.68 17.92-7.68s12.8 2.56 17.92 7.68c10.24 10.24 10.24 25.6 0 35.84l-115.2 115.2h483.84l-115.2-115.2c-10.24-10.24-10.24-25.6 0-35.84 5.12-5.12 12.8-7.68 17.92-7.68s12.8 2.56 17.92 7.68l158.72 158.72c10.24 10.24 10.24 25.6 0 35.84l-158.72 158.72z" />
<glyph unicode="&#xc9;" glyph-name="Comments" data-tags="Kitaboo-Player-v6_Comments" d="M870.4 908.8h-716.8c-56.32 0-102.4-46.080-102.4-102.4v-588.8c0-28.16 10.24-53.76 30.72-71.68 17.92-17.92 40.96-25.6 69.12-30.72 46.080-5.12 325.12-5.12 665.6 0l112.64-120.32c5.12-5.12 12.8-7.68 17.92-7.68 2.56 0 5.12 0 10.24 2.56 10.24 5.12 15.36 12.8 15.36 23.040v793.6c0 56.32-46.080 102.4-102.4 102.4zM921.6 76.8l-74.24 81.92c-5.12 5.12-12.8 7.68-17.92 7.68 0 0 0 0 0 0-386.56-5.12-634.88-5.12-670.72 0-7.68 0-25.6 2.56-38.4 15.36-12.8 10.24-17.92 23.040-17.92 35.84v588.8c0 28.16 23.040 51.2 51.2 51.2h716.8c28.16 0 51.2-23.040 51.2-51.2v-729.6zM768 652.8h-512c-15.36 0-25.6-10.24-25.6-25.6s10.24-25.6 25.6-25.6h512c15.36 0 25.6 10.24 25.6 25.6s-10.24 25.6-25.6 25.6zM560.64 473.6h-307.2c-15.36 0-25.6-10.24-25.6-25.6s10.24-25.6 25.6-25.6h307.2c15.36 0 25.6 10.24 25.6 25.6s-10.24 25.6-25.6 25.6z" />
<glyph unicode="&#xca;" glyph-name="Page-Curl" data-tags="Kitaboo-Player_Page-Curl" d="M842.24 407.040v373.76c0 66.56-53.76 122.88-120.32 125.44 0 0-2.56 0-2.56 0h-381.44c-84.48 0-156.16-69.12-156.16-153.6v-606.72c0-122.88 102.4-153.6 156.16-153.6h273.92c5.12 0 12.8 2.56 15.36 7.68 51.2 53.76 79.36 84.48 104.96 112.64s51.2 56.32 102.4 110.080c5.12 5.12 5.12 10.24 5.12 15.36v168.96c2.56-2.56 2.56 0 2.56 0zM227.84 145.92v604.16c0 61.44 48.64 110.080 110.080 110.080h378.88c43.52 0 79.36-35.84 79.36-79.36v-384c0 0 0-2.56 0-2.56v-128h-122.88c-58.88 0-107.52-48.64-107.52-107.52v-122.88h-227.84c-10.24 0-110.080 2.56-110.080 110.080zM698.88 138.24c-23.040-25.6-46.080-51.2-87.040-94.72v112.64c0 33.28 28.16 61.44 61.44 61.44h102.4c-35.84-33.28-56.32-56.32-76.8-79.36zM332.8 652.8h358.4c15.36 0 25.6 10.24 25.6 25.6s-10.24 25.6-25.6 25.6h-358.4c-15.36 0-25.6-10.24-25.6-25.6s10.24-25.6 25.6-25.6zM332.8 473.6h358.4c15.36 0 25.6 10.24 25.6 25.6s-10.24 25.6-25.6 25.6h-358.4c-15.36 0-25.6-10.24-25.6-25.6s10.24-25.6 25.6-25.6zM535.040 345.6h-202.24c-15.36 0-25.6-10.24-25.6-25.6s10.24-25.6 25.6-25.6h202.24c15.36 0 25.6 10.24 25.6 25.6s-12.8 25.6-25.6 25.6z" />
<glyph unicode="&#xcb;" glyph-name="Page-Swipe" data-tags="Kitaboo-Player_Page-Swipe" d="M724.48 908.8h-424.96c-51.2 0-94.72-43.52-94.72-94.72v-732.16c0-51.2 43.52-94.72 94.72-94.72h424.96c51.2 0 94.72 43.52 94.72 94.72v732.16c0 51.2-43.52 94.72-94.72 94.72zM768 81.92c0-23.040-20.48-43.52-43.52-43.52h-424.96c-23.040 0-43.52 20.48-43.52 43.52v732.16c0 23.040 20.48 43.52 43.52 43.52h424.96c23.040 0 43.52-20.48 43.52-43.52v-732.16zM665.6 627.2h-307.2c-15.36 0-25.6-10.24-25.6-25.6s10.24-25.6 25.6-25.6h307.2c15.36 0 25.6 10.24 25.6 25.6s-10.24 25.6-25.6 25.6zM665.6 473.6h-307.2c-15.36 0-25.6-10.24-25.6-25.6s10.24-25.6 25.6-25.6h307.2c15.36 0 25.6 10.24 25.6 25.6s-10.24 25.6-25.6 25.6zM532.48 320h-174.080c-15.36 0-25.6-10.24-25.6-25.6s10.24-25.6 25.6-25.6h174.080c15.36 0 25.6 10.24 25.6 25.6s-12.8 25.6-25.6 25.6zM970.24 460.8l-53.76 128-2.56 2.56c-2.56 2.56-5.12 5.12-7.68 5.12-5.12 2.56-10.24 2.56-15.36 0-2.56 0-5.12-2.56-7.68-5.12-5.12-5.12-7.68-12.8-7.68-15.36s2.56-7.68 2.56-10.24l46.080-117.76-46.080-115.2c0 0 0-2.56-2.56-5.12 0-2.56-2.56-5.12-2.56-10.24 0-2.56 0-5.12 0-7.68s2.56-5.12 5.12-10.24c5.12-5.12 10.24-7.68 15.36-7.68s10.24 2.56 15.36 7.68l56.32 130.56c7.68 7.68 7.68 12.8 7.68 17.92s0 10.24-2.56 12.8zM128 599.040c-7.68 0-10.24-2.56-15.36-7.68l-56.32-130.56c-5.12-2.56-5.12-7.68-5.12-12.8s0-7.68 2.56-12.8l53.76-128 2.56-2.56c2.56-2.56 5.12-5.12 7.68-5.12 5.12-2.56 10.24-2.56 15.36 0 2.56 0 5.12 2.56 7.68 5.12 5.12 5.12 7.68 10.24 7.68 15.36 0 2.56-2.56 7.68-2.56 10.24l-48.64 117.76 46.080 115.2c2.56 0 2.56 2.56 2.56 5.12s2.56 5.12 2.56 10.24c0 2.56 0 5.12 0 7.68s-2.56 5.12-5.12 10.24c-5.12 2.56-10.24 2.56-15.36 2.56z" />
<glyph unicode="&#xd1;" glyph-name="notch" data-tags="notch" d="M89.6 345.6c-15.36 0-30.72 10.24-35.84 25.6-7.68 20.48 5.12 40.96 25.6 48.64l381.44 125.44c35.84 10.24 71.68 10.24 107.52 0l378.88-125.44c20.48-7.68 30.72-28.16 25.6-48.64-7.68-20.48-28.16-30.72-48.64-25.6l-381.44 125.44c-20.48 5.12-38.4 5.12-58.88 0l-381.44-122.88c-5.12-2.56-7.68-2.56-12.8-2.56z" />
<glyph unicode="&#xd5;" glyph-name="bullet-list" data-tags="bullet-list" d="M384 780.8h563.2c15.36 0 25.6 10.24 25.6 25.6s-10.24 25.6-25.6 25.6h-563.2c-15.36 0-25.6-10.24-25.6-25.6s10.24-25.6 25.6-25.6zM256 806.4c0-56.554-45.846-102.4-102.4-102.4s-102.4 45.846-102.4 102.4c0 56.554 45.846 102.4 102.4 102.4s102.4-45.846 102.4-102.4zM947.2 471.040h-563.2c-15.36 0-25.6-10.24-25.6-25.6s10.24-25.6 25.6-25.6h563.2c15.36 0 25.6 10.24 25.6 25.6s-10.24 25.6-25.6 25.6zM256 448c0-56.554-45.846-102.4-102.4-102.4s-102.4 45.846-102.4 102.4c0 56.554 45.846 102.4 102.4 102.4s102.4-45.846 102.4-102.4zM947.2 115.2h-563.2c-15.36 0-25.6-10.24-25.6-25.6s10.24-25.6 25.6-25.6h563.2c15.36 0 25.6 10.24 25.6 25.6s-10.24 25.6-25.6 25.6zM256 89.6c0-56.554-45.846-102.4-102.4-102.4s-102.4 45.846-102.4 102.4c0 56.554 45.846 102.4 102.4 102.4s102.4-45.846 102.4-102.4z" />
<glyph unicode="&#xd8;" glyph-name="kitaboo-logo-icon" data-tags="kitaboo logo icon" d="M760.32 465.92c35.84 15.36 64 38.4 81.92 71.68 20.48 33.28 30.72 74.24 30.72 112.64 0 79.36-25.6 143.36-74.24 189.44s-122.88 69.12-222.72 69.12h-394.24c-23.040 0-38.4-5.12-46.080-15.36-10.24-10.24-15.36-25.6-15.36-43.52v-803.84c0-20.48 5.12-35.84 15.36-43.52 10.24-10.24 25.6-15.36 46.080-15.36h396.8c71.68 0 130.56 12.8 179.2 35.84s84.48 56.32 107.52 97.28c23.040 43.52 35.84 89.6 35.84 140.8 0 104.96-48.64 174.080-140.8 204.8zM386.56 729.6c0 5.12 2.56 7.68 5.12 12.8 10.24 12.8 28.16 15.36 38.4 7.68l163.84-107.52c2.56-2.56 5.12-2.56 5.12-5.12 2.56-2.56 2.56-7.68 5.12-10.24 0-2.56 0-7.68 0-10.24s-2.56-7.68-5.12-10.24c-2.56-2.56-5.12-5.12-7.68-7.68l-161.28-104.96c-12.8-7.68-28.16-5.12-38.4 7.68-2.56 2.56-5.12 7.68-5.12 12.8v215.040zM496.64 140.8c-30.72 0-61.44 12.8-84.48 35.84s-35.84 53.76-35.84 84.48c0 33.28 12.8 64 35.84 84.48 23.040 23.040 53.76 35.84 84.48 35.84s61.44-12.8 84.48-35.84c23.040-23.040 35.84-53.76 35.84-84.48 0-33.28-12.8-64-35.84-84.48-23.040-23.040-53.76-35.84-84.48-35.84z" />
<glyph unicode="&#xd9;" glyph-name="kitaboo-text-logo" data-tags="kitaboo text logo" horiz-adv-x="2844" d="M1303.373 223.556c-5.337 0-9.458 0.978-12.244 2.904-2.83 1.937-5.214 5.414-7.108 10.359l-24.626 67.547h-147.764l-23.965-67.654c-1.289-4.034-3.742-7.597-7.051-10.239-2.817-1.937-7.162-2.917-12.931-2.917h-103.705c-8.886 0-9.629 3.926-9.629 7.608 0.262 4.064 1.285 8.042 3.018 11.727l171.041 409.43c3.273 7.771 6.777 13.172 10.416 16.042 3.43 2.707 8.947 4.081 16.398 4.081h61.279c7.445 0 12.962-1.375 16.401-4.082 3.626-2.866 7.133-8.274 10.421-16.054l171.034-409.416c2.493-5.986 3.017-9.316 3.017-11.054 0.092-1.114-0.060-2.236-0.445-3.287-0.385-1.050-0.991-2.005-1.78-2.799-2.109-1.622-4.743-2.404-7.394-2.194h-104.384zM1234.255 405.157l-40.741 106.012c-0.596 1.565-1.653 2.911-3.031 3.862s-3.011 1.462-4.686 1.465c-1.674 0.004-3.309-0.501-4.69-1.446s-2.443-2.289-3.045-3.85l-41.234-106.042h97.428zM1779.644 456.581c17.008 6.897 31.269 19.19 40.595 34.987 10.027 16.737 15.177 35.946 14.862 55.456 0 39.164-12.101 69.859-36.304 92.085s-60.521 33.338-108.926 33.337h-193.42c-10.571 0-18.152-2.42-22.772-7.26s-6.923-12.102-6.937-21.786v-391.458c0-9.685 2.317-16.836 6.937-21.452 4.62-4.614 12.216-6.925 22.772-6.932h193.42c34.759 0 63.911 5.83 87.47 17.493 23.545 11.661 41.139 27.614 52.811 47.86 11.772 20.704 17.809 44.176 17.48 67.993 0 51.489-22.658 84.715-67.987 99.678zM1597.11 585.319c0 2.2 0.73 4.338 2.103 6.065 5.321 6.648 13.16 7.428 18.853 3.736l79.96-51.847c1.044-0.648 1.945-1.51 2.646-2.53 1.087-1.527 1.845-3.255 2.246-5.083 0.415-1.828 0.443-3.719 0.1-5.558-0.343-1.841-1.059-3.593-2.088-5.154s-2.374-2.898-3.934-3.932l-78.93-51.187c-5.693-3.696-13.517-2.91-18.839 3.713-1.373 1.728-2.117 3.871-2.117 6.078v105.7zM1650.163 298.682c-15.634 0.019-30.611 6.235-41.668 17.285-11.043 11.051-17.265 26.033-17.279 41.662 0.014 15.629 6.237 30.611 17.279 41.662 11.057 11.051 26.033 17.268 41.668 17.285 15.62-0.017 30.611-6.234 41.654-17.284 11.057-11.051 17.279-26.035 17.294-41.663-0.014-15.629-6.237-30.611-17.294-41.662-11.043-11.051-26.033-17.266-41.654-17.285zM286.374 223.557c-4.254-0.213-8.515 0.265-12.618 1.416-2.715 1.156-5.034 3.078-6.67 5.534l-140.111 201.594v-179.396c0-10.378-2.273-17.913-6.756-22.396-4.482-4.484-12.703-6.757-24.419-6.757h-65.315c-11.685 0-19.764 2.25-24.015 6.69-4.305 4.489-6.486 12.047-6.486 22.466v389.906c0 10.406 2.289 18.077 6.824 22.8 4.479 4.66 12.447 7.026 23.677 7.026h65.315c11.678 0 19.872-2.366 24.356-7.030 4.525-4.72 6.819-12.39 6.819-22.797v-176.308l134.853 198.686c1.439 2.562 3.676 4.584 6.371 5.755 1.936 0.771 5.841 1.694 13.47 1.694h103.705c2.652 0.207 5.285-0.574 7.394-2.195 0.805-0.781 1.425-1.734 1.811-2.788s0.528-2.181 0.416-3.298c0.083-3.611-1.202-7.121-3.599-9.824l-146.272-204.341 151.412-208.023c2.527-2.765 3.904-6.391 3.848-10.137 0.090-1.116-0.062-2.237-0.446-3.287s-0.991-2.005-1.781-2.798c-2.107-1.622-4.742-2.404-7.394-2.196l-104.389 0.004zM565.732 665.405c-4.364 4.665-12.343 7.031-23.712 7.031h-63.593c-10.934 0-18.69-2.366-23.052-7.026-4.401-4.723-6.642-12.394-6.642-22.8v-389.907c0-10.418 2.123-17.976 6.314-22.467 4.138-4.436 12.006-6.69 23.38-6.69h63.593c11.408 0 19.406 2.274 23.775 6.757s6.577 12.018 6.577 22.398v389.906c0 10.417-2.236 18.088-6.64 22.799zM1008.042 666.702c-3.778 3.417-9.781 5.236-17.654 5.592-0.353 0.023-0.705 0.044-1.068 0.060-0.558 0.016-1.037 0.089-1.615 0.089h-347.789c-0.598 0-1.093-0.074-1.67-0.088-0.335-0.014-0.665-0.034-0.993-0.053-7.867-0.338-13.785-2.067-17.378-5.316-3.96-3.576-5.966-10.373-5.966-20.205v-54.961c0-9.859 2.030-16.771 6.028-20.545s10.722-5.685 19.978-5.685h110.023v-312.879c0-10.378 2.273-17.914 6.754-22.394 4.483-4.483 12.705-6.759 24.42-6.759h65.314c11.716 0 19.935 2.273 24.422 6.756 4.486 4.484 6.756 12.020 6.756 22.398v312.874h110.099c9.283 0 16.125 1.936 20.335 5.736 4.161 3.773 6.272 10.669 6.272 20.494v54.961c0.001 9.456-2.11 16.165-6.268 19.927zM2286.21 617.41c-38.621 39.451-96.038 59.456-170.662 59.456s-132.056-20.005-170.648-59.456c-38.635-39.481-58.218-96.476-58.218-169.41s19.582-129.943 58.218-169.408c38.592-39.453 96.009-59.458 170.648-59.458 74.653 0 132.056 20.004 170.648 59.459 38.635 39.471 58.218 96.475 58.218 169.406s-19.582 129.923-58.203 169.41zM2188.298 346.215c-15.42-21.804-39.894-32.861-72.751-32.861s-57.331 11.057-72.751 32.859c-15.777 22.3-23.788 56.545-23.788 101.787 0 44.795 8.010 78.817 23.788 101.13 15.434 21.8 39.908 32.856 72.751 32.856s57.331-11.056 72.751-32.858c15.792-22.31 23.788-56.337 23.788-101.129 0-45.238-8.010-79.483-23.788-101.785zM2785.838 617.41c-38.607 39.451-96.038 59.456-170.662 59.456s-132.041-20.005-170.648-59.456c-38.621-39.481-58.203-96.476-58.203-169.41s19.582-129.943 58.203-169.408c38.592-39.453 96.009-59.458 170.648-59.458 74.653 0 132.056 20.004 170.662 59.459 38.635 39.471 58.218 96.475 58.218 169.406s-19.582 129.923-58.218 169.41zM2687.941 346.216c-15.434-21.805-39.908-32.862-72.765-32.862s-57.317 11.057-72.736 32.859c-15.792 22.301-23.788 56.549-23.788 101.787 0 44.791 7.996 78.816 23.788 101.132 15.434 21.799 39.908 32.855 72.736 32.855 32.842 0 57.331-11.054 72.751-32.858 15.792-22.309 23.788-56.337 23.788-101.129 0-45.241-7.996-79.487-23.773-101.784z" />
<glyph unicode="&#xdc;" glyph-name="Language-selection" data-tags="Language selection" d="M970.24 12.8l-199.68 519.68c-2.56 5.12-5.12 10.24-10.24 12.8s-10.24 5.12-17.92 5.12h-56.32c-7.68 0-12.8-2.56-17.92-5.12-2.56-2.56-7.68-7.68-7.68-12.8l-199.68-519.68c0-2.56 0-5.12 0-7.68 0-5.12 2.56-7.68 5.12-10.24s7.68-5.12 10.24-5.12h40.96c7.68 0 10.24 2.56 15.36 5.12 2.56 2.56 5.12 5.12 5.12 7.68l43.52 115.2h266.24l43.52-115.2c0-2.56 2.56-5.12 5.12-7.68s7.68-5.12 15.36-5.12h40.96c5.12 0 7.68 2.56 10.24 5.12s5.12 7.68 5.12 10.24c5.12 0 5.12 2.56 2.56 7.68zM606.72 184.32l110.080 286.72 110.080-286.72h-220.16zM506.88 345.6c10.24 0 20.48 5.12 25.6 15.36 7.68 12.8 2.56 30.72-10.24 38.4-58.88 33.28-107.52 74.24-148.48 115.2 58.88 69.12 117.76 161.28 151.040 279.040h64c15.36 0 28.16 12.8 28.16 28.16s-12.8 28.16-28.16 28.16h-230.4v30.72c0 15.36-12.8 28.16-28.16 28.16s-28.16-12.8-28.16-28.16v-28.16h-222.72c-15.36 0-28.16-12.8-28.16-28.16s12.8-28.16 28.16-28.16h245.76c2.56 0 2.56 0 5.12 0s2.56 0 5.12 0h128c-30.72-99.84-79.36-176.64-130.56-235.52-71.68 87.040-107.52 166.4-107.52 166.4-7.68 12.8-23.040 20.48-38.4 12.8-12.8-5.12-20.48-20.48-15.36-35.84 2.56-5.12 40.96-92.16 120.32-186.88-76.8-74.24-143.36-107.52-145.92-110.080-15.36-7.68-20.48-23.040-12.8-38.4 5.12-10.24 15.36-15.36 25.6-15.36 5.12 0 7.68 0 12.8 2.56s79.36 38.4 161.28 117.76c43.52-43.52 97.28-89.6 161.28-125.44 2.56-2.56 7.68-2.56 12.8-2.56z" />
<glyph unicode="&#xdf;" glyph-name="Back-to-bookshelf" data-tags="Back-to-bookshelf" d="M947.2 821.76c-15.36 0-25.6-10.24-25.6-25.6v-757.76h-463.36c-10.24 2.56-43.52 7.68-46.080 48.64 0 0 0 2.56 0 2.56v5.12c2.56 38.4 40.96 43.52 48.64 43.52 2.56 0 2.56 0 5.12 0l325.12 81.92c10.24 2.56 20.48 12.8 20.48 25.6v637.44c0 7.68-2.56 15.36-10.24 20.48-5.12 5.12-12.8 5.12-20.48 5.12l-302.080-61.44c-40.96-2.56-117.76-35.84-117.76-145.92v-601.6c0-2.56 0-5.12 0-7.68 0-74.24 61.44-99.84 94.72-102.4h491.52c15.36 0 25.6 10.24 25.6 25.6v780.8c0 12.8-10.24 25.6-25.6 25.6zM412.16 701.44c0 89.6 64 94.72 71.68 94.72 2.56 0 2.56 0 5.12 0l273.92 56.32v-588.8l-304.64-76.8c-12.8 0-28.16-5.12-43.52-12.8v527.36zM243.2 619.52c-7.68 7.68-23.040 7.68-30.72 0l-153.6-153.6c-7.68-7.68-7.68-23.040 0-30.72l153.6-153.6c5.12-5.12 10.24-7.68 15.36-7.68s10.24 2.56 15.36 7.68c7.68 7.68 7.68 23.040 0 30.72l-138.24 138.24 138.24 138.24c7.68 7.68 7.68 23.040 0 30.72z" />
<glyph unicode="&#xe5;" glyph-name="Audio-language" data-tags="Audio-language" d="M901.12 465.92h-17.92v71.68c0 204.8-166.4 371.2-371.2 371.2s-371.2-168.96-371.2-371.2v-71.68h-17.92c-38.4 0-71.68-33.28-71.68-71.68v-235.52c0-38.4 33.28-71.68 71.68-71.68h117.76c25.6 0 46.080 20.48 46.080 46.080v286.72c0 25.6-20.48 46.080-46.080 46.080h-61.44v71.68c0 181.76 148.48 332.8 332.8 332.8s332.8-148.48 332.8-332.8v-71.68h-58.88c-25.6 0-46.080-20.48-46.080-46.080v-289.28c0-25.6 20.48-46.080 46.080-46.080h20.48v-48.64c0-5.12-5.12-10.24-10.24-10.24h-97.28c-10.24 0-20.48-7.68-20.48-20.48 0-10.24 7.68-20.48 20.48-20.48h97.28c28.16 0 48.64 23.040 48.64 48.64v48.64h56.32c38.4 0 71.68 33.28 71.68 71.68v235.52c0 43.52-33.28 76.8-71.68 76.8zM179.2 424.96h58.88c2.56 0 7.68-2.56 7.68-7.68v-289.28c0-2.56-2.56-7.68-7.68-7.68h-115.2c-17.92 0-33.28 15.36-33.28 33.28v235.52c0 17.92 15.36 33.28 33.28 33.28h17.92zM934.4 156.16c0-17.92-15.36-33.28-33.28-33.28h-71.68c-2.56 0-2.56 0-5.12 0s-2.56 0-5.12 0h-35.84c-2.56 0-7.68 2.56-7.68 7.68v289.28c0 2.56 2.56 7.68 7.68 7.68h117.76c17.92 0 33.28-15.36 33.28-33.28v-238.080zM714.24 245.76c2.56 2.56 2.56 2.56 2.56 5.12 0 0 0 2.56 0 5.12l-89.6 232.96c0 2.56-2.56 5.12-5.12 5.12-2.56 2.56-5.12 2.56-7.68 2.56h-25.6c-2.56 0-5.12 0-7.68-2.56s-2.56-2.56-5.12-5.12l-89.6-232.96c0-2.56 0-2.56 0-5.12s0-2.56 2.56-5.12 2.56-2.56 5.12-2.56h17.92c2.56 0 5.12 0 7.68 2.56s2.56 2.56 2.56 5.12l20.48 51.2h117.76l20.48-51.2c0 0 2.56-2.56 2.56-5.12 2.56-2.56 5.12-2.56 7.68-2.56h17.92c2.56 0 5.12 0 5.12 2.56zM555.52 330.24l48.64 128 48.64-128h-97.28zM504.32 394.24c2.56-2.56 5.12-2.56 7.68-2.56 7.68 0 12.8 2.56 15.36 10.24 5.12 7.68 2.56 20.48-7.68 25.6-23.040 12.8-43.52 30.72-61.44 46.080 25.6 28.16 48.64 69.12 64 117.76h23.040c10.24 0 17.92 7.68 17.92 17.92s-7.68 17.92-17.92 17.92h-94.72v7.68c0 10.24-7.68 17.92-17.92 17.92s-17.92-7.68-17.92-17.92v-7.68h-92.16c-10.24 0-17.92-7.68-17.92-17.92s7.68-17.92 17.92-17.92h112.64c0 0 2.56 0 2.56 0s2.56 0 2.56 0h46.080c-12.8-35.84-30.72-66.56-48.64-89.6-28.16 35.84-40.96 66.56-43.52 66.56-5.12 10.24-15.36 12.8-23.040 10.24-10.24-5.12-12.8-15.36-10.24-23.040 0-2.56 17.92-38.4 51.2-79.36-30.72-30.72-58.88-43.52-58.88-43.52-10.24-5.12-12.8-15.36-7.68-25.6 2.56-7.68 10.24-10.24 15.36-10.24 2.56 0 5.12 0 7.68 2.56 2.56 0 33.28 15.36 69.12 48.64 17.92-20.48 40.96-38.4 66.56-53.76z" />
<glyph unicode="&#xef;" glyph-name="Learning-Objective" data-tags="Learning Objective" d="M778.24 243.2c46.080 25.6 74.24 74.24 74.24 128 0 81.92-66.56 148.48-148.48 148.48s-148.48-66.56-148.48-148.48c0-56.32 30.72-104.96 74.24-128-112.64-30.72-194.56-135.68-194.56-256h537.6c0 122.88-81.92 225.28-194.56 256zM606.72 373.76c0 53.76 43.52 97.28 97.28 97.28s97.28-43.52 97.28-97.28-43.52-97.28-97.28-97.28-97.28 43.52-97.28 97.28zM706.56 202.24c102.4 0 186.88-71.68 209.92-163.84h-422.4c23.040 94.72 110.080 163.84 212.48 163.84zM320 33.28h-145.92c-43.52 0-76.8 35.84-76.8 76.8v675.84c0 43.52 35.84 76.8 76.8 76.8h481.28c43.52 0 76.8-35.84 76.8-76.8v-171.52c0-12.8 10.24-23.040 23.040-23.040s23.040 10.24 23.040 23.040v171.52c0 66.56-56.32 122.88-122.88 122.88h-481.28c-66.56 0-122.88-56.32-122.88-122.88v-675.84c0-66.56 56.32-122.88 122.88-122.88h145.92c12.8 0 23.040 10.24 23.040 23.040s-10.24 23.040-23.040 23.040zM629.76 650.24h-204.8c-12.8 0-23.040 10.24-23.040 23.040s10.24 23.040 23.040 23.040h204.8c12.8 0 23.040-10.24 23.040-23.040s-10.24-23.040-23.040-23.040zM215.040 609.28v0c-5.12 0-12.8 2.56-15.36 7.68l-33.28 33.28c-7.68 7.68-7.68 23.040 0 30.72s23.040 7.68 30.72 0l17.92-17.92 61.44 61.44c7.68 7.68 23.040 7.68 30.72 0s7.68-23.040 0-30.72l-76.8-76.8c-2.56-5.12-10.24-7.68-15.36-7.68zM501.76 394.24h-76.8c-12.8 0-23.040 10.24-23.040 23.040s10.24 23.040 23.040 23.040h76.8c12.8 0 23.040-10.24 23.040-23.040s-10.24-23.040-23.040-23.040zM215.040 353.28v0c-5.12 0-12.8 2.56-15.36 7.68l-33.28 33.28c-7.68 7.68-7.68 23.040 0 30.72s23.040 7.68 30.72 0l17.92-17.92 61.44 61.44c7.68 7.68 23.040 7.68 30.72 0s7.68-23.040 0-30.72l-76.8-76.8c-2.56-5.12-10.24-7.68-15.36-7.68zM215.040 97.28v0c-5.12 0-12.8 2.56-15.36 7.68l-33.28 33.28c-7.68 7.68-7.68 23.040 0 30.72s23.040 7.68 30.72 0l17.92-17.92 61.44 61.44c7.68 7.68 23.040 7.68 30.72 0s7.68-23.040 0-30.72l-76.8-76.8c-2.56-5.12-10.24-7.68-15.36-7.68z" />
<glyph unicode="&#xf0;" glyph-name="Manage-Account" data-tags="Kitaboo-Player_Manage-Account" d="M550.4 40.96h-445.44c12.8 197.12 179.2 355.84 381.44 355.84 2.56 0 7.68 0 10.24 2.56 5.12 0 10.24 0 15.36 0 140.8 0 256 115.2 256 256s-115.2 256-256 256-256-117.76-256-258.56c0-92.16 48.64-174.080 122.88-217.6-186.88-48.64-327.68-217.6-327.68-422.4 0-15.36 12.8-25.6 25.6-25.6h473.6c15.36 0 25.6 12.8 25.6 25.6 0 15.36-10.24 28.16-25.6 28.16zM307.2 652.8c0 112.64 92.16 204.8 204.8 204.8s204.8-92.16 204.8-204.8c0-112.64-92.16-204.8-204.8-204.8s-204.8 92.16-204.8 204.8zM929.28 284.16h-12.8c0 0-2.56 0-2.56 2.56s0 2.56 0 5.12l10.24 10.24c7.68 7.68 12.8 20.48 12.8 30.72 0 12.8-5.12 23.040-12.8 30.72l-35.84 33.28c-17.92 17.92-46.080 17.92-61.44 0l-10.24-10.24c0 0-2.56 0-5.12 0s-2.56 2.56-2.56 2.56v12.8c0 25.6-20.48 43.52-43.52 43.52h-46.080c-25.6 0-43.52-20.48-43.52-43.52v-12.8c0 0 0-2.56-2.56-2.56s-2.56 0-5.12 0l-10.24 10.24c-17.92 17.92-46.080 17.92-61.44 0l-33.28-33.28c-17.92-17.92-17.92-46.080 0-61.44l10.24-10.24c0 0 0-2.56 0-5.12s-2.56-2.56-2.56-2.56h-12.8c-25.6 0-43.52-20.48-43.52-43.52v-46.080c0-25.6 20.48-43.52 43.52-43.52h12.8c0 0 2.56 0 2.56-2.56s0-2.56 0-5.12l-10.24-10.24c-17.92-17.92-17.92-46.080 0-61.44l33.28-33.28c17.92-17.92 46.080-17.92 61.44 0l10.24 10.24c0 0 2.56 0 5.12 0s2.56-2.56 2.56-2.56v-12.8c0-25.6 20.48-43.52 43.52-43.52h46.080c25.6 0 43.52 20.48 43.52 43.52v12.8c0 0 0 2.56 2.56 2.56s2.56 0 5.12 0l10.24-10.24c15.36-17.92 46.080-17.92 61.44 0l33.28 33.28c7.68 7.68 12.8 20.48 12.8 30.72 0 12.8-5.12 23.040-12.8 30.72l-10.24 10.24c0 0 0 2.56 0 5.12s2.56 2.56 2.56 2.56h12.8c25.6 0 43.52 20.48 43.52 43.52v46.080c2.56 25.6-17.92 43.52-40.96 43.52zM872.96 163.84c-7.68-17.92-2.56-35.84 10.24-48.64l10.24-10.24c0 0 0-2.56 0-2.56l-33.28-33.28c0 0-2.56 0-2.56 0l-10.24 10.24c-12.8 12.8-33.28 15.36-48.64 10.24-17.92-7.68-28.16-23.040-28.16-40.96v-12.8c0-2.56 0-2.56-2.56-2.56h-46.080c-2.56 0-2.56 0-2.56 2.56v12.8c0 17.92-10.24 33.28-28.16 40.96-10.24 0-15.36 0-20.48 0-12.8 0-23.040-5.12-30.72-12.8l-10.24-10.24c0 0-2.56 0-2.56 0l-33.28 33.28c0 0 0 2.56 0 2.56l10.24 10.24c12.8 12.8 15.36 33.28 10.24 48.64-7.68 17.92-23.040 28.16-40.96 28.16h-12.8c-2.56 0-2.56 0-2.56 2.56v46.080c0 2.56 0 2.56 2.56 2.56h12.8c17.92 0 33.28 10.24 40.96 28.16s2.56 35.84-10.24 48.64l-10.24 10.24c0 0 0 2.56 0 2.56l33.28 33.28h2.56l10.24-10.24c12.8-12.8 33.28-15.36 48.64-10.24 17.92 7.68 28.16 23.040 28.16 40.96v12.8c0 2.56 0 2.56 2.56 2.56h46.080c2.56 0 2.56 0 2.56-2.56v-12.8c0-17.92 10.24-33.28 28.16-40.96s35.84-2.56 48.64 10.24l10.24 10.24c0 0 2.56 0 2.56 0l33.28-33.28c0 0 0-2.56 0-2.56l-10.24-10.24c-12.8-12.8-15.36-33.28-10.24-48.64 7.68-17.92 23.040-28.16 40.96-28.16h12.8c2.56 0 2.56 0 2.56-2.56v-46.080c0-2.56 0-2.56-2.56-2.56h-12.8c-12.8 2.56-30.72-7.68-38.4-25.6zM742.4 299.52c-46.080 0-81.92-38.4-81.92-81.92s38.4-81.92 81.92-81.92 81.92 38.4 81.92 81.92-35.84 81.92-81.92 81.92zM742.4 176.64c-23.040 0-40.96 17.92-40.96 40.96s17.92 40.96 40.96 40.96c23.040 0 40.96-17.92 40.96-40.96s-17.92-40.96-40.96-40.96z" />
<glyph unicode="&#xf1;" glyph-name="Info" data-tags="Info" d="M512 908.8c-253.44 0-460.8-207.36-460.8-460.8s207.36-460.8 460.8-460.8 460.8 207.36 460.8 460.8c0 253.44-207.36 460.8-460.8 460.8zM512 38.4c-225.28 0-409.6 184.32-409.6 409.6s184.32 409.6 409.6 409.6 409.6-184.32 409.6-409.6-184.32-409.6-409.6-409.6zM529.92 583.68h-33.28c-5.12 0-7.68-2.56-12.8-5.12s-5.12-7.68-5.12-12.8v-340.48c0-5.12 2.56-7.68 5.12-12.8s7.68-5.12 12.8-5.12h33.28c5.12 0 7.68 2.56 10.24 5.12s5.12 7.68 5.12 12.8v343.040c0 5.12-2.56 7.68-5.12 12.8-2.56 2.56-5.12 2.56-10.24 2.56zM535.040 727.040h-46.080c-5.12 0-7.68-2.56-12.8-5.12-2.56-2.56-5.12-7.68-5.12-12.8v-38.4c0-5.12 2.56-7.68 5.12-12.8 2.56-2.56 7.68-5.12 12.8-5.12h46.080c5.12 0 7.68 2.56 12.8 5.12 2.56 2.56 5.12 7.68 5.12 12.8v38.4c0 5.12-2.56 7.68-5.12 12.8-5.12 2.56-7.68 5.12-12.8 5.12z" />
<glyph unicode="&#xf2;" glyph-name="Student-Answer_On-off" data-tags="Kitaboo-Player-v6_Student-Answer_On-off" d="M448 294.4c43.52 30.72 71.68 81.92 71.68 138.24 0 94.72-76.8 168.96-168.96 168.96-94.72 0-171.52-76.8-171.52-168.96 0-56.32 28.16-107.52 71.68-138.24-115.2-40.96-199.68-151.040-199.68-281.6 0-15.36 12.8-25.6 25.6-25.6s25.6 12.8 25.6 25.6c0 135.68 110.080 245.76 245.76 245.76s245.76-110.080 245.76-245.76c0-15.36 12.8-25.6 25.6-25.6 15.36 0 25.6 12.8 25.6 25.6 2.56 130.56-81.92 240.64-197.12 281.6zM348.16 314.88c-64 0-115.2 51.2-115.2 115.2s51.2 115.2 115.2 115.2c64 0 115.2-51.2 115.2-115.2 2.56-61.44-51.2-115.2-115.2-115.2zM962.56 752.64c-15.36 38.4-40.96 71.68-76.8 99.84-40.96 33.28-92.16 51.2-151.040 56.32-25.6 2.56-51.2 0-74.24-5.12-38.4-7.68-71.68-20.48-102.4-40.96s-56.32-46.080-71.68-76.8c-20.48-35.84-28.16-74.24-25.6-110.080 2.56-23.040 7.68-46.080 20.48-69.12 12.8-25.6 30.72-48.64 53.76-69.12 7.68-5.12 51.2-40.96 71.68-56.32 0-5.12-2.56-7.68-2.56-10.24-2.56-7.68-5.12-17.92-7.68-25.6l-5.12-15.36c-2.56-10.24-2.56-17.92 5.12-25.6 5.12-5.12 10.24-7.68 15.36-7.68 2.56 0 7.68 0 10.24 2.56 28.16 12.8 53.76 28.16 76.8 43.52 12.8 7.68 20.48 17.92 28.16 25.6 17.92 0 35.84 2.56 53.76 5.12 30.72 7.68 61.44 17.92 87.040 33.28 33.28 20.48 58.88 46.080 76.8 74.24 23.040 35.84 33.28 74.24 30.72 115.2-2.56 20.48-7.68 38.4-12.8 56.32zM903.68 609.28c-10.24-17.92-25.6-33.28-46.080-48.64-12.8-10.24-30.72-20.48-48.64-28.16-23.040-10.24-43.52-15.36-64-15.36-10.24 0-20.48-2.56-33.28-2.56-2.56 0-2.56 0-2.56-2.56l-23.040-20.48c-5.12-5.12-10.24-10.24-15.36-12.8s-10.24-7.68-15.36-10.24v0c0 2.56 2.56 7.68 2.56 10.24 2.56 10.24 0 20.48-5.12 25.6-2.56 2.56-5.12 5.12-7.68 5.12 0 0 0 0-2.56 0-5.12 5.12-61.44 48.64-66.56 53.76-20.48 15.36-33.28 33.28-46.080 51.2-17.92 33.28-23.040 66.56-15.36 102.4 5.12 35.84 23.040 64 48.64 89.6 17.92 15.36 38.4 28.16 61.44 38.4 20.48 7.68 40.96 12.8 64 15.36 20.48 2.56 38.4 2.56 58.88 0 12.8-2.56 25.6-5.12 40.96-7.68 40.96-12.8 76.8-33.28 102.4-66.56s38.4-69.12 35.84-110.080c-5.12-23.040-12.8-46.080-23.040-66.56zM752.64 793.6c0 2.56-2.56 5.12-2.56 5.12-2.56 2.56-5.12 2.56-7.68 2.56h-46.080c-2.56 0-5.12 0-7.68-2.56s-2.56-2.56-5.12-5.12l-71.68-197.12c0 0 0-2.56 0-2.56 0-2.56 0-2.56 2.56-5.12s2.56-2.56 5.12-2.56h38.4c2.56 0 5.12 0 7.68 2.56s2.56 2.56 2.56 5.12l12.8 30.72h81.92l12.8-30.72c0 0 2.56-2.56 2.56-5.12 2.56-2.56 5.12-2.56 7.68-2.56h38.4c2.56 0 2.56 0 5.12 2.56s2.56 2.56 2.56 5.12c0 0 0 2.56 0 2.56l-79.36 197.12zM688.64 668.16l28.16 81.92 28.16-81.92h-56.32z" />
<glyph unicode="&#xf4;" glyph-name="No-color" data-tags="Kitaboo-Player_No-color" d="M512 908.8c-253.44 0-460.8-207.36-460.8-460.8s207.36-460.8 460.8-460.8 460.8 207.36 460.8 460.8-207.36 460.8-460.8 460.8zM512 852.48c99.84 0 192-38.4 263.68-99.84l-568.32-568.32c-61.44 71.68-99.84 163.84-99.84 263.68 0 222.72 181.76 404.48 404.48 404.48zM512 43.52c-99.84 0-192 38.4-263.68 99.84l568.32 568.32c61.44-71.68 99.84-163.84 99.84-263.68 0-222.72-181.76-404.48-404.48-404.48z" />
<glyph unicode="&#xf5;" glyph-name="Activity" data-tags="Activity" d="M225.28 545.28h414.72c35.84 0 66.56 30.72 66.56 66.56v122.88c0 35.84-30.72 66.56-66.56 66.56h-414.72c-35.84 0-66.56-30.72-66.56-66.56v-122.88c-2.56-38.4 28.16-66.56 66.56-66.56zM202.24 734.72c0 10.24 10.24 20.48 23.040 20.48h414.72c12.8 0 23.040-10.24 23.040-23.040v-122.88c0-12.8-10.24-23.040-23.040-23.040h-414.72c-12.8 0-23.040 10.24-23.040 23.040v125.44zM419.84 389.12h76.8c12.8 0 23.040 10.24 23.040 23.040s-10.24 23.040-23.040 23.040h-76.8c-12.8 0-23.040-10.24-23.040-23.040s10.24-23.040 23.040-23.040zM501.76 230.4h-76.8c-12.8 0-23.040-10.24-23.040-23.040s10.24-23.040 23.040-23.040h76.8c12.8 0 23.040 10.24 23.040 23.040s-10.24 23.040-23.040 23.040zM289.28 284.16h-76.8c-20.48 0-38.4-17.92-38.4-38.4v-76.8c0-20.48 17.92-38.4 38.4-38.4h76.8c20.48 0 38.4 17.92 38.4 38.4v76.8c0 20.48-17.92 38.4-38.4 38.4zM284.16 176.64h-64v64h64v-64zM307.2 463.36l-61.44-61.44-15.36 20.48c-7.68 7.68-23.040 7.68-30.72 0s-7.68-23.040 0-30.72l33.28-33.28c5.12-5.12 10.24-7.68 15.36-7.68s12.8 2.56 15.36 7.68l76.8 76.8c7.68 7.68 7.68 23.040 0 30.72-10.24 7.68-23.040 7.68-33.28-2.56zM947.2 547.84c33.28 33.28 35.84 87.040 2.56 120.32-15.36 15.36-35.84 25.6-58.88 25.6 0 0 0 0-2.56 0-23.040 0-43.52-7.68-61.44-25.6l-10.24-10.24v125.44c0 66.56-61.44 122.88-138.24 125.44 0 0 0 0-2.56 0h-445.44c-99.84 0-179.2-69.12-179.2-156.16v-611.84c0-120.32 117.76-153.6 179.2-153.6h371.2c7.68 0 12.8 2.56 17.92 7.68 12.8 15.36 166.4 156.16 186.88 171.52 7.68 5.12 10.24 10.24 10.24 20.48 0 0 0 0 0 0s0 0 0 0 0 0 0 0 0 0 0 0v217.6c0 0 0 2.56 0 2.56v15.36l130.56 125.44zM860.16 637.44c7.68 7.68 17.92 12.8 30.72 12.8 10.24 0 20.48-5.12 28.16-12.8 15.36-15.36 15.36-40.96-2.56-58.88l-25.6-23.040-56.32 56.32 25.6 25.6zM857.6 524.8l-222.72-217.6-66.56-15.36 12.8 74.24 220.16 215.040 56.32-56.32zM599.040 35.84v104.96c0 28.16 23.040 51.2 51.2 51.2h120.32c-15.36-12.8-40.96-35.84-87.040-79.36-46.080-38.4-71.68-61.44-84.48-76.8zM773.12 240.64h-122.88c-53.76 0-97.28-43.52-97.28-97.28v-110.080h-322.56c-5.12 0-133.12 0-133.12 110.080v609.28c0 61.44 58.88 110.080 133.12 110.080h445.44c53.76 0 97.28-35.84 97.28-79.36v-168.96l-227.84-222.72c-2.56-2.56-5.12-7.68-5.12-12.8l-20.48-112.64c0-7.68 0-15.36 7.68-20.48 5.12-5.12 10.24-5.12 15.36-5.12 2.56 0 2.56 0 5.12 0l104.96 23.040c5.12 0 7.68 2.56 10.24 5.12l110.080 107.52v-135.68z" />
<glyph unicode="&#xf7;" glyph-name="Caret-Left-close-panel" data-tags="Kitaboo-Player__Caret-Left" d="M755.2 890.88c10.24-10.24 17.92-25.6 17.92-40.96v-806.4c0-15.36-5.12-28.16-17.92-40.96-10.24-10.24-25.6-17.92-40.96-17.92s-28.16 5.12-40.96 17.92l-404.48 404.48c-10.24 10.24-17.92 25.6-17.92 40.96s5.12 28.16 17.92 40.96l404.48 401.92c10.24 10.24 25.6 17.92 40.96 17.92s28.16-5.12 40.96-17.92v0z" />
<glyph unicode="&#x100;" glyph-name="Resume" data-tags="Resume" d="M870.4 908.8c-17.92 0-30.72-15.36-30.72-30.72v-857.6c0-17.92 15.36-30.72 30.72-30.72s30.72 15.36 30.72 30.72v857.6c0 15.36-12.8 30.72-30.72 30.72zM760.32 522.24l-491.52 368.64c-17.92 12.8-35.84 17.92-53.76 17.92-48.64 0-92.16-38.4-92.16-92.16v-737.28c0-53.76 43.52-92.16 92.16-92.16 17.92 0 38.4 5.12 53.76 17.92l491.52 368.64c48.64 38.4 48.64 110.080 0 148.48zM729.6 414.72l-491.52-368.64c-7.68-5.12-15.36-7.68-23.040-7.68-20.48 0-40.96 15.36-40.96 40.96v737.28c0 25.6 20.48 40.96 40.96 40.96 7.68 0 15.36-2.56 23.040-7.68l491.52-368.64c10.24-7.68 15.36-20.48 15.36-33.28s-5.12-25.6-15.36-33.28z" />
<glyph unicode="&#x101;" glyph-name="Analytics_Pages-Read-Session" data-tags="Pages-Read-Session" d="M506.88 25.6h-145.92c-64 0-115.2 51.2-115.2 115.2v614.4c0 110.080 104.96 115.2 115.2 115.2h235.52v-125.44c0-58.88 46.080-104.96 104.96-104.96h128v-51.2c0-10.24 7.68-20.48 20.48-20.48s20.48 7.68 20.48 20.48v76.8c0 5.12-2.56 10.24-5.12 12.8-53.76 53.76-79.36 84.48-104.96 112.64s-53.76 58.88-104.96 112.64c-7.68 2.56-12.8 5.12-17.92 5.12h-276.48c-53.76 0-153.6-33.28-153.6-153.6v-614.4c0-84.48 69.12-153.6 153.6-153.6h145.92c10.24 0 20.48 7.68 20.48 20.48 0 10.24-10.24 17.92-20.48 17.92zM729.6 762.88c20.48-23.040 43.52-48.64 79.36-87.040h-107.52c-35.84 0-66.56 30.72-66.56 66.56v120.32c46.080-46.080 69.12-74.24 94.72-99.84zM174.080 870.4c10.24 0 20.48 7.68 20.48 20.48 0 10.24-10.24 17.92-20.48 17.92-66.56 0-122.88-56.32-122.88-122.88v-675.84c0-66.56 56.32-122.88 122.88-122.88 10.24 0 20.48 7.68 20.48 20.48 0 10.24-7.68 20.48-20.48 20.48-46.080 0-84.48 38.4-84.48 84.48v673.28c0 46.080 38.4 84.48 84.48 84.48zM814.080 432.64v56.32h20.48c10.24 0 20.48 7.68 20.48 20.48s-10.24 15.36-20.48 15.36h-176.64c-10.24 0-20.48-7.68-20.48-20.48s7.68-20.48 20.48-20.48h20.48v-56.32c-92.16-28.16-158.72-115.2-158.72-215.040 0-125.44 102.4-227.84 227.84-227.84s227.84 102.4 227.84 227.84c-2.56 104.96-69.12 189.44-161.28 220.16zM716.8 486.4h58.88v-46.080c-10.24 0-17.92 2.56-28.16 2.56s-20.48 0-30.72-2.56v46.080zM744.96 25.6c-102.4 0-186.88 84.48-186.88 186.88s84.48 186.88 186.88 186.88c102.4 0 186.88-84.48 186.88-186.88 2.56-102.4-81.92-186.88-186.88-186.88zM839.68 232.96h-74.24v66.56c0 10.24-7.68 20.48-20.48 20.48s-20.48-7.68-20.48-20.48v-87.040c0-10.24 7.68-20.48 20.48-20.48h92.16c0 0 0 0 0 0 10.24 0 20.48 7.68 20.48 20.48 2.56 12.8-7.68 20.48-17.92 20.48z" />
<glyph unicode="&#x103;" glyph-name="User1" data-tags="Kitaboo-Player-v6_User" d="M637.44 430.080c76.8 43.52 130.56 128 130.56 222.72 0 140.8-115.2 256-256 256s-256-115.2-256-256c0-94.72 51.2-179.2 130.56-222.72-184.32-51.2-320-212.48-335.36-407.040-2.56-20.48 12.8-35.84 33.28-35.84h857.6c17.92 0 33.28 15.36 33.28 35.84-17.92 194.56-153.6 355.84-337.92 407.040zM307.2 652.8c0 112.64 92.16 204.8 204.8 204.8s204.8-92.16 204.8-204.8-92.16-204.8-204.8-204.8-204.8 92.16-204.8 204.8zM104.96 38.4c25.6 202.24 199.68 358.4 407.040 358.4s381.44-156.16 407.040-358.4h-814.080z" />
<glyph unicode="&#x104;" glyph-name="Darkmode_ON" data-tags="Darkmode_ON" d="M512 908.8c-253.44 0-460.8-207.36-460.8-460.8s207.36-460.8 460.8-460.8 460.8 207.36 460.8 460.8-207.36 460.8-460.8 460.8zM512 38.4v819.2c225.28 0 409.6-184.32 409.6-409.6s-184.32-409.6-409.6-409.6z" />
<glyph unicode="&#x105;" glyph-name="Analytics_Reading-Time-Session" data-tags="Reading-Time-Session" d="M501.76 33.28h-327.68c-43.52 0-76.8 35.84-76.8 76.8v675.84c0 43.52 35.84 76.8 76.8 76.8h481.28c43.52 0 76.8-35.84 76.8-76.8v-171.52c0-12.8 10.24-23.040 23.040-23.040s23.040 10.24 23.040 23.040v171.52c0 66.56-56.32 122.88-122.88 122.88h-481.28c-66.56 0-122.88-56.32-122.88-122.88v-675.84c0-66.56 56.32-122.88 122.88-122.88h327.68c12.8 0 23.040 10.24 23.040 23.040s-10.24 23.040-23.040 23.040zM611.84 657.92c0 12.8-10.24 23.040-23.040 23.040h-358.4c-12.8 0-23.040-10.24-23.040-23.040s10.24-23.040 23.040-23.040h358.4c12.8 0 23.040 10.24 23.040 23.040zM491.52 450.56c0 12.8-10.24 23.040-23.040 23.040h-238.080c-12.8 0-23.040-10.24-23.040-23.040s10.24-23.040 23.040-23.040h238.080c12.8 0 23.040 10.24 23.040 23.040zM230.4 261.12c-12.8 0-23.040-10.24-23.040-23.040s10.24-23.040 23.040-23.040h179.2c12.8 0 23.040 10.24 23.040 23.040s-10.24 23.040-23.040 23.040h-179.2zM814.080 432.64v56.32h20.48c10.24 0 20.48 7.68 20.48 20.48s-10.24 15.36-20.48 15.36h-176.64c-10.24 0-20.48-7.68-20.48-20.48s7.68-20.48 20.48-20.48h20.48v-56.32c-92.16-28.16-158.72-115.2-158.72-215.040 0-125.44 102.4-227.84 227.84-227.84s227.84 102.4 227.84 227.84c-2.56 104.96-69.12 189.44-161.28 220.16zM716.8 486.4h58.88v-46.080c-10.24 0-17.92 2.56-28.16 2.56s-20.48 0-30.72-2.56v46.080zM744.96 25.6c-102.4 0-186.88 84.48-186.88 186.88s84.48 186.88 186.88 186.88c102.4 0 186.88-84.48 186.88-186.88 2.56-102.4-81.92-186.88-186.88-186.88zM839.68 232.96h-74.24v66.56c0 10.24-7.68 20.48-20.48 20.48s-20.48-7.68-20.48-20.48v-87.040c0-10.24 7.68-20.48 20.48-20.48h92.16c0 0 0 0 0 0 10.24 0 20.48 7.68 20.48 20.48 2.56 12.8-7.68 20.48-17.92 20.48z" />
<glyph unicode="&#x106;" glyph-name="Sort_Category_Z-A" data-tags="Sort_Category_Z-A" d="M279.040 896c-2.56 2.56-2.56 7.68-7.68 10.24-2.56 0-7.68 2.56-12.8 2.56h-58.88c-5.12 0-7.68-2.56-12.8-5.12-2.56-2.56-5.12-5.12-5.12-7.68l-130.56-348.16c0-2.56 0-2.56 0-5.12s0-5.12 2.56-7.68c2.56-2.56 5.12-2.56 7.68-2.56h46.080c5.12 0 7.68 0 10.24 2.56s5.12 5.12 5.12 7.68l25.6 66.56h158.72l25.6-66.56c0-2.56 2.56-5.12 5.12-7.68s5.12-2.56 10.24-2.56h46.080c2.56 0 5.12 0 7.68 2.56s2.56 5.12 2.56 7.68c0 2.56 0 2.56 0 5.12l-125.44 348.16zM168.96 670.72l61.44 166.4 61.44-166.4h-122.88zM332.8 53.76h-184.32l184.32 243.2c2.56 2.56 2.56 5.12 5.12 7.68s2.56 7.68 2.56 10.24v35.84c0 5.12 0 7.68-2.56 10.24s-5.12 2.56-10.24 2.56h-256c-5.12 0-7.68 0-10.24-2.56s-2.56-5.12-2.56-10.24v-35.84c0-2.56 0-7.68 2.56-10.24s5.12-2.56 10.24-2.56h176.64l-186.88-240.64c0-2.56-2.56-2.56-5.12-7.68s-5.12-7.68-5.12-12.8v-38.4c0-5.12 0-7.68 2.56-10.24s5.12-2.56 10.24-2.56h268.8c5.12 0 7.68 0 10.24 2.56s2.56 5.12 2.56 10.24v38.4c0 5.12 0 7.68-2.56 10.24-2.56 0-7.68 2.56-10.24 2.56zM965.12 742.4l-148.48 158.72c-7.68 5.12-15.36 7.68-23.040 7.68s-15.36-2.56-20.48-10.24l-148.48-158.72c-12.8-12.8-12.8-33.28 0-46.080s30.72-12.8 43.52 0l97.28 102.4v-780.8c0-17.92 12.8-30.72 30.72-30.72s30.72 15.36 30.72 30.72v783.36l97.28-102.4c12.8-12.8 30.72-12.8 43.52 0s7.68 33.28-2.56 46.080z" />
<glyph unicode="&#x108;" glyph-name="Sort_Category_A-Z" data-tags="Sort_Category_A-Z" d="M279.040 896c-2.56 2.56-2.56 7.68-7.68 10.24-2.56 0-7.68 2.56-12.8 2.56h-58.88c-5.12 0-7.68-2.56-12.8-5.12-2.56-2.56-5.12-5.12-5.12-7.68l-130.56-348.16c0-2.56 0-2.56 0-5.12s0-5.12 2.56-7.68c2.56-2.56 5.12-2.56 7.68-2.56h46.080c5.12 0 7.68 0 10.24 2.56s5.12 5.12 5.12 7.68l25.6 66.56h158.72l25.6-66.56c0-2.56 2.56-5.12 5.12-7.68s5.12-2.56 10.24-2.56h46.080c2.56 0 5.12 0 7.68 2.56s2.56 5.12 2.56 7.68c0 2.56 0 2.56 0 5.12l-125.44 348.16zM168.96 670.72l61.44 166.4 61.44-166.4h-122.88zM332.8 53.76h-184.32l184.32 243.2c2.56 2.56 2.56 5.12 5.12 7.68s2.56 7.68 2.56 10.24v35.84c0 5.12 0 7.68-2.56 10.24s-5.12 2.56-10.24 2.56h-256c-5.12 0-7.68 0-10.24-2.56s-2.56-5.12-2.56-10.24v-35.84c0-2.56 0-7.68 2.56-10.24s5.12-2.56 10.24-2.56h176.64l-186.88-240.64c0-2.56-2.56-2.56-5.12-7.68s-5.12-7.68-5.12-12.8v-38.4c0-5.12 0-7.68 2.56-10.24s5.12-2.56 10.24-2.56h268.8c5.12 0 7.68 0 10.24 2.56s2.56 5.12 2.56 10.24v38.4c0 5.12 0 7.68-2.56 10.24-2.56 0-7.68 2.56-10.24 2.56zM965.12 199.68c-12.8 12.8-30.72 12.8-43.52 0l-97.28-102.4v780.8c0 15.36-12.8 30.72-30.72 30.72s-30.72-15.36-30.72-30.72v-780.8l-97.28 102.4c-12.8 12.8-30.72 12.8-43.52 0s-12.8-33.28 0-46.080l148.48-158.72c5.12-5.12 12.8-10.24 20.48-10.24s15.36 2.56 20.48 10.24l148.48 158.72c15.36 12.8 15.36 33.28 5.12 46.080z" />
<glyph unicode="&#x10c;" glyph-name="Collection" data-tags="Collection" d="M647.68 704h-476.16c-66.56 0-120.32-53.76-120.32-120.32v-478.72c0-64 53.76-117.76 120.32-117.76h478.72c66.56 0 120.32 53.76 120.32 120.32v476.16c-2.56 66.56-56.32 120.32-122.88 120.32zM716.8 107.52c0-38.4-30.72-69.12-69.12-69.12h-476.16c-38.4 0-69.12 30.72-69.12 69.12v476.16c0 38.4 30.72 69.12 69.12 69.12h478.72c38.4 0 69.12-30.72 69.12-69.12v-476.16zM729.6 806.4h-499.2c-12.8 0-25.6-12.8-25.6-25.6 0-15.36 12.8-25.6 25.6-25.6h499.2c48.64 0 89.6-40.96 89.6-89.6v-499.2c0-15.36 12.8-25.6 25.6-25.6 15.36 0 25.6 12.8 25.6 25.6v499.2c0 76.8-64 140.8-140.8 140.8zM824.32 908.8h-491.52c-15.36 0-25.6-12.8-25.6-25.6 0-15.36 12.8-25.6 25.6-25.6h491.52c53.76 0 94.72-43.52 94.72-94.72v-494.080c0-15.36 12.8-25.6 25.6-25.6 15.36 0 25.6 12.8 25.6 25.6v491.52c2.56 81.92-64 148.48-145.92 148.48z" />
</font>
</defs>
</svg>
